<svg xmlns="http://www.w3.org/2000/svg" xmlns:xlink="http://www.w3.org/1999/xlink" viewBox="0 0 193 187"><defs><path id="a" d="M.0845202 28.7766212c.41199132-3.7496559 6.99155412-.9282536 6.99155412-.9282536 2.47912187 1.114515 5.65719418 4.0845193 5.65719418 4.0845193 1.5167839 1.0320714 2.7076643 1.1470853 3.5767405.9455565.1936974.4193427 1.6756363 3.577644 2.7025401 4.5852877 1.1006932 1.0819447 3.6464306 2.9750935 3.6464306 2.9750935s.7153481.2717584 1.537281 1.3170615c0 0 1.3251362 1.7598141 1.8344887 2.4102023 0 0 1.537281 2.2310656 2.3243689 1.4178259 0 0 .7430192-.6137466-1.0678979-2.6809429 0 0-1.5116597-2.0733032-2.0025647-2.8610974-.3218042-.5160357-.1578276-.6768516.1619269-.7094219.2972077-.0305346 1.0043569.5119645 1.2626201.6615843.3945688.2300277.435563.3226495 1.1252897.7928832 0 0 1.2288.8447922 3.0673881 2.0275013 0 0 2.5969801 1.7883131 3.1411776.6198535 0 0 .7768393-.8590417-2.0384347-2.2351369 0 0-1.3302605-.8040793-1.6110705-1.0432674 0 0-1.5680266-1.1043368-2.2587782-1.5460715-.1527033-.0977109-.2869591-.2218852-.3873948-.3725228-.1455293-.2147604-.2654372-.4946615.0635409-.520107.1373304-.0101782.273636.028499.3935439.0956752.1732004.0966931.49193.2768476.8516537.4855011.9449154.5465703 2.3704874 1.3404714 3.026394 1.6926378 0 0 1.9677197.9414853 2.744559 1.4931447 0 0 1.3425588.880416 1.7770969.063105 0 0 .5954402-.7979724-.9356917-1.69162l-2.3879099-1.3933982s-1.1181157-.668709-2.3223192-1.2641348c0 0-1.0299783-.4142535-1.5823746-1.0005189-.1537281-.1628515-.0891623-.4366456.1240073-.5078932.3586989-.1180673 1.1273394-.0753188 2.7671059.7562417 0 0 .2767106.1323169 2.2577534.8671843 0 0 2.6215766.8946654 2.990524.3338456 0 0 .9049461-.908915-2.4371029-2.0560003 0 0-2.4719478-1.1267288-3.2610854-1.3679526 0 0-2.3735619-.7949189-3.1329788-1.3353824 0 0-1.1191406-.6778693-1.6377167-1.7903487 0 0-.5554709-1.1949229 1.0863453-1.9593072 0 0 1.776072-.5150178 2.7189377-1.1766021 0 0 2.4524756-1.7832239 1.1601347-2.7379409 0 0-.3914942-.611711-1.4645164.3318099 0 0-.9244183.6900833-1.480914.7307962l-1.6551393.4040753s-1.6489901-.0732832-3.2139422.6442812c0 0-3.1268296.508911-3.6033867.7246892 0 0-.0317705.1455486-.5001287-.2737941l-.4406873-.4071287c.0881375-.6300318.0963363-1.0391962.0963363-1.0391962.1988217-2.1781389-1.0094812-7.92069-1.0094812-7.92069-.4488861-1.8809349-1.0965938-8.2178941-1.0965938-8.2178941-1.6448907-8.11814751 1.2954155-7.37615534 1.2954155-7.37615534 1.5895486.074301 2.8911132 6.4356879 2.8911132 6.4356879.8619022 4.87842034.9223686 5.59394914.9223686 5.59394914.2562135 4.3043689 1.0863452 5.9084562 1.7586495 6.4906503.399693.3460595 1.0381771.1496198 1.1878058-.3562376.5390732-1.8157943.1568026-4.3888481.1568026-4.3888481-.2203436-3.1440519-.1875482-6.200571-.1875482-6.200571V3.9132677c0-4.15780248 2.3428162-3.91047176 2.3428162-3.91047176 2.1931876-.09872872 1.994366 3.66314104 1.994366 3.66314104-.1998466 2.22801214.224443 7.32628202.224443 7.32628202.0625161 1.7455646.140405 5.5715571.1486038 8.1313792.0040994.9771091.0163977 1.8341151.0256214 2.3002775.0051242.3216318.0891623.6432635.2746608.9068794.4447867.634103.8731757.0580158 1.1406626-.4905902.1865234-.3837189.28081-.8020437.2992573-1.2274932.0799387-1.9226656.4663086-6.4082067.4663086-6.4082067.1537281-.851917.2111199-4.49877285.2111199-4.49877285-.5482969-7.32628206 2.1388704-6.78683645 2.1388704-6.78683645 3.0407419-.29618618 2.4842461 7.0840405 2.4842461 7.0840405-.2234182 5.1237154-.4857808 8.6138267-.4857808 8.6138267-.1373304 1.9552359-.2797851 2.1486221-.2777354 3.2193707.0020497.6992437-.2633875 2.7756003.1537281 3.3394737.4478612.6066218.9725864.7460634 1.6448907-.520107 1.0258789-1.9328438 3.4640066-7.4626702 3.4640066-7.4626702 2.0681554-6.1252522 4.21215-5.3588323 4.21215-5.3588323 2.604154.6188357-.1250322 6.3868324-.1250322 6.3868324-.7225221 1.8066339-2.7414845 6.5832721-2.7414845 6.5832721-1.1591099 2.9079172-.8598525 4.6779095-.8598525 4.6779095s-.8352561 7.4016008-1.7320033 10.9161399c-.8967473 3.514539-6.2311125 11.0392963-6.2311125 11.0392963-.7973364 1.8809349-.2982325 8.1181476-.2982325 8.1181476H17.3891803l2.1788396-9.7761794c.2982326-1.4483606-.0379196-1.337418-.0379196-1.337418-1.0094812-.7053506-5.7873506-6.4102424-5.7873506-6.4102424-3.3399992-2.3023131-5.15911512-5.7181234-5.15911512-5.7181234l-2.80400059-2.8590618c-.74711858-1.0758377-3.26518491-2.1160517-3.26518491-2.1160517"/></defs><g fill="none" fill-rule="evenodd"><path fill="#FFBF00" d="M111.843194 156.557946c-3.747697 0-6.665546-1.07077-8.753549-3.212311-2.088002-2.141541-3.1320032-5.220006-3.1320032-9.235395v-15.981249h4.0153892v15.820633c0 6.023084 2.636772 9.034626 7.910316 9.034626 2.56985 0 4.53739-.742847 5.902622-2.228541 1.365233-1.485694 2.047849-3.754389 2.047849-6.806085v-15.820633h3.894927v15.981249c0 4.042158-1.044001 7.127316-3.132003 9.255472-2.088002 2.128156-5.005852 3.192234-8.753548 3.192234Zm33.287575 0c-2.810772 0-5.34716-.622385-7.609162-1.867156-2.262003-1.24477-4.035466-2.958003-5.320391-5.139698-1.284924-2.181695-1.927386-4.637774-1.927386-7.368239 0-2.730464.642462-5.186544 1.927386-7.368239 1.284925-2.181695 3.065081-3.894927 5.340468-5.139698 2.275387-1.244771 4.818467-1.867156 7.629239-1.867156 2.19508 0 4.202774.368077 6.023084 1.104232 1.82031.736155 3.372927 1.827002 4.657851 3.272542l-2.610003 2.529695c-2.114771-2.221848-4.751544-3.332773-7.910316-3.332773-2.088003 0-3.975235.468462-5.661699 1.405387-1.686463.936924-3.004849 2.228541-3.955158 3.87485-.950309 1.64631-1.425463 3.486696-1.425463 5.52116 0 2.034464.475154 3.874851 1.425463 5.52116.950309 1.64631 2.268695 2.937926 3.955158 3.874851 1.686464.936924 3.573696 1.405386 5.661699 1.405386 3.132003 0 5.768775-1.124309 7.910316-3.372927l2.610003 2.529695c-1.284924 1.44554-2.844234 2.54308-4.677928 3.292619-1.833694.749539-3.848081 1.124309-6.043161 1.124309Zm41.238046-28.428955v28.107724h-4.015389v-12.528014h-16.141864v12.528014h-4.015389v-28.107724h4.015389v12.086321h16.141864v-12.086321h4.015389Z"/><path fill="#1E90FF" fill-rule="nonzero" d="M17.4151983 128.128991c3.6406195 0 6.5049304.870001 8.5929327 2.610003 2.0880024 1.740002 3.1320035 4.135851 3.1320035 7.187547 0 3.051695-1.0440011 5.447544-3.1320035 7.187546-2.0880023 1.740002-4.9523132 2.610003-8.5929327 2.610003h-6.9466231v8.512625H6.45318607v-28.107724H17.4151983Zm-.1204616 16.101711c2.5430797 0 4.4838511-.542078 5.8223142-1.626233 1.338463-1.084155 2.0076945-2.643465 2.0076945-4.677928 0-2.034464-.6692315-3.593774-2.0076945-4.677929-1.3384631-1.084155-3.2792345-1.626232-5.8223142-1.626232h-6.8261615v12.608322h6.8261615Zm31.4404966 12.327244c-2.8375416 0-5.394006-.622385-7.6693931-1.867156-2.2753872-1.24477-4.0622354-2.964695-5.3605445-5.159775-1.2983092-2.195079-1.9474637-4.644467-1.9474637-7.348162 0-2.703695.6491545-5.153083 1.9474637-7.348162 1.2983091-2.195079 3.0851573-3.915004 5.3605445-5.159775 2.2753871-1.244771 4.8318515-1.867156 7.6693931-1.867156 2.8107724 0 5.3538522.622385 7.6292394 1.867156 2.2753871 1.244771 4.055543 2.958003 5.3404675 5.139698 1.2849245 2.181695 1.9273867 4.637775 1.9273867 7.368239 0 2.730465-.6424622 5.186544-1.9273867 7.368239-1.2849245 2.181695-3.0650804 3.894928-5.3404675 5.139698-2.2753872 1.244771-4.818467 1.867156-7.6292394 1.867156Zm0-3.573696c2.0612331 0 3.9150044-.468462 5.561314-1.405386 1.6463095-.936925 2.9446186-2.228541 3.8949274-3.874851.9503088-1.646309 1.4254631-3.486696 1.4254631-5.52116 0-2.034464-.4751543-3.87485-1.4254631-5.52116-.9503088-1.646309-2.2486179-2.937926-3.8949274-3.87485-1.6463096-.936925-3.5000809-1.405387-5.561314-1.405387-2.061233 0-3.928389.468462-5.6014678 1.405387-1.6730788.936924-2.9847725 2.228541-3.9350813 3.87485-.9503087 1.64631-1.4254631 3.486696-1.4254631 5.52116 0 2.034464.4751544 3.874851 1.4254631 5.52116.9503088 1.64631 2.2620025 2.937926 3.9350813 3.874851 1.6730788.936924 3.5402348 1.405386 5.6014678 1.405386Zm40.4349683 3.252465-6.0632375-8.633087c-.7495393.053539-1.338463.080308-1.7667712.080308h-6.9466232v8.552779h-4.0153891v-28.107724h10.9620123c3.6406194 0 6.5049303.870001 8.5929327 2.610003 2.0880023 1.740002 3.1320035 4.135851 3.1320035 7.187547 0 2.16831-.5353852 4.015389-1.6061557 5.541237-1.0707704 1.525847-2.5966183 2.636772-4.5775435 3.332773l6.6655459 9.436164h-4.3767742Zm-7.9504704-11.96586c2.5430798 0 4.4838512-.548769 5.8223142-1.646309 1.3384631-1.09754 2.0076946-2.663542 2.0076946-4.698005 0-2.034464-.6692315-3.593774-2.0076946-4.677929-1.338463-1.084155-3.2792344-1.626232-5.8223142-1.626232h-6.8261615v12.648475h6.8261615Z"/><g fill="#1E90FF"><path d="m139.323267 64.5821565-.005645-.0159231c-.013857-.058042-.022582-.1643669-.022582-.306647 0-.1494711.009238-.3405477.027201-.5701477.018476-.2244635.048756-.4874506.07493-.7884475.01591-.1494711.032847-.3081879.050296-.4756367v.0010273c.018476-.1653942.040545-.341575.056968-.5285423.018989-.1838855.037978-.376503.058507-.5773388v.0005137c.010778-.1001611.022069-.2023768.03336-.306647l.000513-.001541c.009238-.1047839.018476-.2116224.028227-.3205154.020016-.2167589.041058-.4422497.062613-.6749316v.0005136c.022582-.2347365.035926-.4771776.055941-.7242416v.0005136c.044137-.4982372.066719-1.0267795.101618-1.5815178v-.0020546c.020529-.5552519.050809-1.1402954.055942-1.7535894v.0005137c.005645-.3097289.008724-.6266488.008724-.9502462 0-2.2287125-.142162-4.7697221-.561465-7.5074583-.006672-.0457145-.013857-.0919427-.021042-.1381709-.333594-2.1557747-.828341-4.3932192-1.519138-6.654805-.457281-1.5003617-.999243-3.0099689-1.630507-4.5118715-.631776-1.5024162-1.356959-2.9935322-2.16785-4.457425-.811405-1.46492-1.711083-2.9015895-2.694417-4.294599-.983847-1.3935231-2.0580211-2.7361953-3.2009669-4.0223663-2.2899976-2.5713147-4.8709921-4.9073793-7.6423921-6.8833777v.0005136c-2.2273844-1.5943589-4.5692174-2.9704181-6.9567272-4.1040361.6938764.3148654 1.3795413.6466811 2.0544285.9944198 2.7062208 1.3919822 5.2348667 3.0454105 7.478161 4.8108138 1.1213906.8834721 2.1770887 1.7895447 3.1516977 2.7038356.974609.9142909 1.8727478 1.8306363 2.6949298 2.7223268l-.0005132-.0010273c.203236.2244636.4039059.4458452.6009832.664145.1929716.222409.3828642.4417361.5691632.656954.094433.1099204.188866.213677.275601.3194882.0893.108893.178088.2162452.264822.3220564l-.000513-.0005137c.175522.2147043.352584.4191356.514249.6251079.327435.417081.648713.8115616.936117 1.1993647l.001026.0010273-.000513-.0005136c.146269.1941584.292024.3811257.429054.5650112.135491.1869674.268415.3682846.397747.544979 1.029524 1.4115008 1.763945 2.538955 2.261771 3.2020728.156532.2167588.288944.3842076.39826.5008054.054915.0585557.104184.1042702.149861.1376572.046703.0328734.088787.0580421.147295.059583h.005645c.049269 0 .102131-.0374962.119581-.0791015.020529-.042119.025148-.0852654.025661-.13663l-.005132-.0904018c-.011804-.1094067-.042084-.2511732-.091354-.4314631v-.0005137c-.049782-.1797763-.117014-.4006443-.214013-.6579812v.0005136c-.09546-.2563096-.208882-.5557656-.352071-.8947723l-.000513-.0010273c-.147808-.3338703-.312552-.714996-.514762-1.1356726v-.0005136c-.405446-.8367303-.933038-1.8383411-1.626401-2.9971278l-.000513-.0005136c-.700549-1.1536502-1.569434-2.463449-2.670296-3.8980639-1.0988084-1.4341012-2.4408845-2.9837729-4.0698518-4.609978-.2042625-.2054586-.4177629-.4037262-.6286972-.6081575h-.0005133v-.0005136c-.1067502-.1022157-.2140136-.204945-.3223035-.3087016h-.0005132c-.1103428-.1042703-.2232517-.204945-.3346209-.3061334-.2242781-.2039177-.4495827-.4134855-.6846385-.6204851l-.0005132-.0005136c-.2365954-.203404-.475757-.40989-.7174846-.6184305l-.0005133-.0005136-.0005132-.0005137c-.9797412-.82543-2.041598-1.6570238-3.1973744-2.477831-1.1552632-.8208073-2.406499-1.6272324-3.7578131-2.4023251-1.3513141-.77509263-2.8027066-1.52039381-4.3593096-2.21433033-1.5571162-.69085464-3.2199562-1.32777639-4.9880067-1.88765115-1.7685638-.55936112-3.6413117-1.04629807-5.6182436-1.41560996-1.9836039-.37547564-3.916912-.62356694-5.787607-.75095129-1.2276276-.08629262-2.4280543-.12635705-3.5976878-.12635705-.6112476 0-1.2142838.01078657-1.8085951.03184608-1.7316118.06112395-3.3898327.2105951-4.9690175.42427207-1.579698.21316333-3.0813862.49104613-4.5024985.81669805-1.4211124.32462464-2.7620594.69599111-4.026485 1.09201262h-.0002053l-.0008211.00051364c-.3129116.10170202-.6258745.19621299-.9326274.30151054l-.0009752.00051365.0008212-.00051365c-.3049566.10581119-.6056535.2095678-.9029632.31229712h-.0004106c-.298336.10529754-.5875881.2172725-.8744793.32257004h-.0006159c-.1421112.05341925-.2856594.10529755-.427822.16077138h-.0007698c-.1403663.05650113-.2798601.11197495-.4182248.16744878h.0006158c-2.2229194.87730835-4.1404715 1.81625429-5.7980253 2.71308116-1.6579131.8993952-3.0536722 1.7633487-4.2296696 2.5338186l.0006158-.0005137c-.5934388.3811258-1.1186704.7535196-1.605821 1.0807124l-.0008211.0010273h-.0007699c-.2399827.170017-.467956.3313021-.685049.485396h.0002053c-.2167337.1520394-.4244348.2958605-.6166878.4381406-.7734259.5573065-1.3670187.988256-1.8016666 1.286171-.4316199.297915-.7183058.4622819-.8293671.4807732h-.0010265l-.0078009.0010273c.0073904-.0328734.0310499-.0960519.0747764-.1736126.0593285-.1078658.1519651-.2496322.2762675-.4201629h.000154l.0004106-.0010273c.1213257-.170017.2839145-.3641754.4749358-.5912072h-.0002053c.7596203-.8999088 2.0350801-2.222035 3.8466006-3.7449971h.0003592l.0004106-.0005137c.4468626-.3847213.9390427-.7668743 1.4552929-1.1747097.525437-.39499421 1.0727371-.81207523 1.6613517-1.21836967l.0004106-.00051364h.0001539c1.1742012-.82337546 2.482148-1.66267396 3.9221469-2.47783107 2.8772777-1.63236881 6.2908213-3.16252195 10.1175089-4.32695873.1207098-.0364689.2399827-.07345146.360282-.11043401.1204532-.03441432.2409578-.06882864.3616163-.10272931.2426002-.06882865.4872532-.13765729.7320602-.20648593h.0005132c.2412145-.06985593.489614-.12841164.7385268-.19364475.2499392-.06317853.4983388-.12892529.748278-.18799465.2519921-.05804206.5044974-.11608413.7585424-.17412619.1272792-.02927785.254045-.05804206.3818374-.08731992.1277923-.02619597.2550714-.05239195.3828637-.07858792.2566112-.05239195.5152752-.10427026.7734259-.15717585.2576376-.05085101.5183545-.09399732.780611-.1422801 1.043894-.18953559 2.1093434-.33541122 3.1891629-.4653638.2704681-.02773691.5409362-.05598747.8119176-.08372439.1360038-.01386846.2720077-.02722327.4085248-.04109173.1360039-.01027293.272521-.02157315.4090382-.03235973.2740606-.02157316.5476081-.04263267.8226952-.06420582.2756003-.01489575.5517139-.0297915.8283406-.0452009l.4141704-.0220868.4162232-.01335481a7664.10668516 7664.10668516 0 0 1 .8344993-.02465504c.2797061-.00205458.5594122-.00462282.8401448-.00616376l.4208422-.00205458h.0107777c.1349774 0 .2720078.00410917.4095513.00616376.281759.00462281.5630048.01027293.845277.01592304h-.0005132c.2807325.00821834.5630048.0220868.8463034.03441432h.0010265c.5630047.01849128 1.1285756.06574676 1.6977391.10170202.2822722.02157316.5650576.05033736.849896.0760197l.4270009.03852349c.1401096.0133548.2812457.03184608.4249479.04725548h-.0010264c.2838119.03338703.568137.06677406.8524621.09964744.2832987.0364689.5660841.07858792.8504092.1181387l.4264877.06009666c.1401097.02003221.2802193.0452009.4239215.06780134h-.0005132l.8493828.14125281.8478431.16077138.4239216.08064251h-.0005133c.1395965.02773692.2797061.06009665.4218687.08988815h-.0005132l.8442505.18234454.8401448.20237674.4187893.10170203.4172497.11094766v-.00051365l.8344993.2239499.8293671.24295483.4131439.12224789.4105778.13097987c.2735474.08834721.5476081.17618078.8206423.26452799.2720078.09399732.5429891.18799464.8144837.28250561h-.0005132l.406472.14176646.4023662.15049844h-.0005132c.2684152.10170203.5363172.20186311.803706.30305148.2653359.10683849.531185.21419062.7965208.32102911l.397234.16128502h-.0005132c.1308717.05341925.2607169.11146131.3921018.16847608v-.00051365c.2622566.11454319.5239999.22805908.7847168.34106133h-.0010265c.2591773.11505683.5157884.23730471.7744524.35647072l.0005132.00051364c.5152751.2326819 1.0182329.49001884 1.5258096.74016472 2.0128576 1.0190748 3.930769 2.16039748 5.7398773 3.3792808 1.8070555 1.22145154 3.4960698 2.53535944 5.0613976 3.89190004 1.5653277 1.3580816 3.0023497 2.7618777 4.3115797 4.1805695 1.309743 1.4181782 2.487588 2.8517658 3.539694 4.259671 2.106777 2.8168378 3.688015 5.5365964 4.872018 7.86547l-.000513-.0005137c.530672 1.0586256.980768 2.037636 1.360039 2.9175126-.269442-.5634703-.540423-1.1007446-.804219-1.6154185l-.000513-.0005136c-.946382-1.8054677-1.873262-3.3001793-2.709301-4.5216308l-.000513-.0005137c-1.686961-2.4362257-2.97053-3.7953345-3.623349-4.3223359l-.000513-.0005136-.001026-.0005137c-.207342-.1576895-.345399-.245523-.47781-.2506595l-.124713.0493101-.052862.119166v-.0005137.0005137l-.002566.0452009c.000513.1001611.032846.2234362.089814.3847213v-.0005137c.033359.0939973.076983.1967266.126252.3138381l.001027.0005136-.001027-.0010273c.04927.1176251.107264.2480913.173469.3908851v.0010273-.0005137c.268929.5680931.669242 1.338563 1.168094 2.3257917.124713.2460367.255072.5059419.393128.7797155.133951.2742873.274574.5629566.421869.8649808l.000513.0005137c.149348.2968877.292024.6168895.448043.9476779.077497.1648805.15602.332843.236083.5038873.076983.1730989.154993.3497933.235569.5290559l.001026.0025683-.001026-.0025683c.640501 1.4361559 1.323086 3.1065345 1.980011 5.0224362v.0010273h.000513c.085195.2362775.162178.4807732.242241.7293782.079549.247064.161152.4977235.242754.7514649.07647.255796.153967.5157012.233003.7781746h-.000513c.021042.0693422.041571.1391982.062613.2090541-.457281-1.1593003-.926879-2.2143304-1.389806-3.1635492-.144729-.2943195-.290997-.5763115-.429054-.8500851v.0005136c-.138056-.2768555-.282272-.5388152-.420842-.7910157-.139083-.2516868-.269955-.4972099-.406472-.7298918v-.0005136c-.136004-.2306273-.266875-.4525226-.393128-.6651723l-.000513-.0005137c-.06364-.1052975-.125227-.2095678-.1863-.3107561l-.000513-.0010273-.000513-.0010273c-.064153-.1001611-.126253-.197754-.186813-.2927786l-.000514-.0005136c-.12266-.1900493-.240188-.3708529-.351044-.5429245-.111882-.1741261-.224791-.3338702-.330515-.4833414v-.0005136c-.106237-.1489575-.206828-.289183-.301774-.4196493h-.000514c-.095459-.1294389-.182707-.2511731-.271494-.3616072-.087248-.1083794-.168337-.2069995-.244294-.2953467l.000513.0005136c-.1514-.1772081-.278679-.3143517-.38389-.4114309-.118041-.1027293-.194511-.1679624-.299208-.1746398l-.121121.068315-.028227.1243024c.002566.1915902.112396.5280287.332568 1.0663303h.000513c.419816 1.0709531 1.274331 2.9015895 2.291537 5.7225365h-.000513c.503471 1.4104735 1.037222 3.0716065 1.52581 5.009595v-.0005136c.06056.2434684.124713.4889915.184247.7391374.05748.2511732.115988.5064555.174495.765847v.0010273h.000513c.061074.2568233.113936.5213513.168337.7905021v-.0005137c.053375.2701781.113422.5408699.163205.8172117v.0005137c.210421 1.1084493.391075 2.2893228.541449 3.5400522v-.0005137c.229411 1.9487751.313579 3.7424289.313579 5.377366 0 .4571454-.006672.9019634-.018476 1.3339401v.0020546-.0025682c-.065179 1.9785666-.244807 3.6956871-.468059 5.1642026-.028227.1838855-.055428.3636618-.082115.5403562-.03182.1751535-.063126.3477388-.092893.5162148v-.0005136c-.030794.1689897-.060561.3343839-.089814.4951553-.028741.1592304-.064666.3164063-.096486.4710139l.000513-.0010273c-.066719.3081879-.123686.6019938-.190405.877822v-.0005137c-.068259.2768555-.133438.5418972-.194511.7925567v.0005136c-.029767.1243025-.062614.2444958-.09546.3621209-.033359.117625-.065692.2321682-.096999.3436295l.000513-.0005136c-.064666.2229226-.12266.4319768-.182707.6256215-.125739.3888305-.239161.7262963-.341292 1.0139384-.220173.5706613-.387483.9466506-.510143 1.1289951-.034386.0518783-.064666.0883472-.086222.1083794l-.004619.0035956M52.73455104 25.27370335l.00074724.01687921c-.00370441.05956066-.0264215.16379256-.06798579.29985575-.04366506.14293997-.1083186.3229642-.19256955.5372756-.0832413.2092492-.18902476.45188462-.30198562.73207045-.05887975.1382845-.12144204.28511035-.18704596.44013642l.00030004-.0009824c-.0659853.15276089-.1385573.31478591-.2088816.488778-.07187789.17029408-.14630678.3489386-.2246089.53499181l.0001501-.00049128c-.03956684.0926309-.08022457.18707635-.12148269.28348662l-.00094094.00132342c-.03944485.09750223-.07948996.1969692-.12062598.29825082-.08246286.20143065-.1684583.41091143-.25704517.62711888l.0001501-.00049129c-.09016863.21787192-.17375381.445815-.26506972.6762266l.00015007-.00049118c-.1877586.4635515-.36375683.96239132-.55918685 1.48267817l-.00030007.0009825-.00030013.00098238c-.18183773.52498305-.38170356 1.07560249-.56577319 1.6605967l.00015007-.00049118c-.09587991.29454326-.1914066.5967142-.2859391.9061719-.65107415 2.13132835-1.25742891 4.60290659-1.6562233 7.34371038-.00697415.04566929-.01360765.09198-.02024114.13829071-.31074891 2.15919172-.4912457 4.44364-.4913106 6.80854178-.00100089 1.56860955.07627879 3.17083978.24120781 4.79183243.16526988 1.62163413.4231659 3.25979371.77097761 4.896999.34800255 1.63833777.78867495 3.27548966 1.32210157 4.89536799.53376752 1.62051962 1.16877021 3.2188412 1.8860455 4.78325399 1.4387769 3.12904462 3.22455935 6.11826803 5.29761362 8.81887356l.00015007-.0004912c1.66429794 2.1764557 3.5018156 4.17763948 5.4538386 5.96034116-.57157567-.50414478-1.13034691-1.0220964-1.67415985-1.5521217-2.18133172-2.12303585-4.1164716-4.444133-5.74601702-6.7888146-.81430227-1.17300259-1.55918026-2.34839552-2.22411157-3.50791992-.66493128-1.1595245-1.25613359-2.29863754-1.7819005-3.39194683l.0001907.00113255c-.12878296-.27412516-.25601226-.54455219-.3807063-.81098086-.1195673-.26915677-.23709007-.53446532-.35237763-.79479303-.05819562-.13274968-.11819178-.25960493-.17022577-.3861724-.05358778-.13026553-.10713482-.2589073-.1591688-.38547476l.00034077.00064136c-.10513093-.25668283-.2147353-.50399208-.30916558-.7482697-.1912865-.49466863-.38328562-.96592228-.5448429-1.42087879l-.00068145-.00128268.00034068.00064132c-.08315756-.22847467-.16792507-.4499223-.24524933-.6658698-.07495153-.21844418-.14909967-.43073416-.22116273-.63755223-.57219655-1.65107741-.94516342-2.94416871-1.22751966-3.72398181-.08637125-.25309108-.16408001-.45196853-.23455803-.59545895-.0354094-.07206585-.06917124-.13019973-.10309885-.17549363-.03505921-.0451029-.067952-.0814863-.12345267-.10007988-.00196325-.00060075-.00343558-.0010512-.00539882-.00165195-.04711648-.01441687-.10862226.00597281-.13746356.04065425-.0319361.0342716-.04895765.07418102-.06445361.1231511l-.0215011.08795344c-.02067268.10808018-.03312994.25251254-.03868153.43934155l-.00015007.00049118c-.00491078.18648797-.0051386.41737816.01244613.69185393l.00014997-.00049122c.01641245.2730428.03739845.59260277.07529675.95869558l.00019061.00113251c.04381594.36253238.0900234.77521113.16050503 1.23667536l-.00014998.00049122c.14329538.91880795.35523371 2.0310338.67978374 3.34207438l.00034077.00064136c.33292165 1.30823104.78120903 2.8150453 1.41487403 4.50910131.63185183 1.69296408 1.46257973 3.56763198 2.5453054 5.59943736.13531642.25625105.28156805.50832836.42356492.76554926l.00049085.00015017-.00015007.00049119c.0722255.12898586.14479164.25861314.21803934.38952314l.00049084.00015017c.07506087.13200193.15362604.26131629.2305688.39067138.15490767.26063419.30914642.52697203.47346055.7937072l.00034078.00064135c.16683683.26374727.33522745.53119262.50547176.80135369l.00034078.00064136.00034075.00064145c.69579816 1.07604808 1.46832318 2.1820188 2.33381513 3.30515632.86500117 1.12298748 1.82598282 2.26030405 2.89182303 3.39694152 1.06584009 1.13663754 2.23608867 2.27406948 3.52195572 3.39316727 1.28725812 1.11630068 2.69137591 2.21196135 4.2186147 3.26472764 1.52787971 1.05242528 3.17654843 2.0660766 4.95921083 2.9977282 1.78724206.9394983 3.5635988 1.7424611 5.31534054 2.41166997 1.14877735.44174233 2.28504719.83131715 3.4035732 1.17356763.58453899.17885925 1.16437643.3450005 1.73887131.49876471 1.67380468.44823978 3.30323438.79051752 4.87583775 1.04826792 1.57294414.25839175 3.0901937.4320653 4.54434288.53647937 1.45384912.10539657 2.84469048.14263612 4.16955652.13390684l.00019633.00006002.00093532-.0002509c.32894906-.00569599.65584647-.00450008.97995636-.0154366l.0010825-.0002059-.00093533.0002509c.32254217-.0119533.6404105-.0231883.95473943-.03443202l.0001963.00006012.00019633.00006002c.31606084-.01339934.62538519-.0358425.93050115-.05259086l.00039273.00012017.00019632.00006003c.15150698-.00950141.30393805-.01710869.45609438-.02855995l.00039263.00012015.00034357.00010514c.15073858-.01295926.30034278-.0251913.44886723-.03775389l-.00058905-.0001802c2.38207665-.18851802 4.49013532-.52533491 6.3372521-.89795223 1.84821062-.37496824 3.43536866-.79275315 4.78505801-1.18544452l-.00073902.00031102c.67884678-.19082422 1.28991569-.39325628 1.851363-.56360563l.00108539-.00074209.0007361.00022526c.2791637-.09236589.54429193-.17989552.79691454-.26373197l-.00019633-.00006003c.25167878-.08197684.49231872-.1587374.71773556-.2385447.90243686-.3066401 1.59598583-.54506589 2.09867164-.70277962.49979012-.15859977.82196576-.23189644.93357606-.21708171l.00078527.00024029.00019633.00006002.00776021.00130028c-.0166708.0292745-.05775288.08276932-.12222656.1441459-.08824694.0857922-.21825005.1942575-.3869382.32096423l-.00014723-.00004511-.00069273.00086224c-.16569148.12708658-.37789546.2651855-.62689287.42640169l.0001963.00006012c-.98931891.63831194-2.59528019 1.52945083-4.77254899 2.45579152l-.00034357-.00010514-.0005427.00037104c-.5397255.23715279-1.1220381.45858907-1.73487164.6975422-.61786754.223985-1.26309522.46269413-1.94468108.6789989l-.0005426.00037107-.00014727-.00004502c-1.36342688.44381078-2.85940707.86371314-4.47461685 1.22188867-3.22841861.71911191-6.93981045 1.18355585-10.93945702 1.17737206-.1260891-.00044597-.25095399.00001982-.37680053.00018518-.12524345-.0023357-.25053599-.0046863-.3758258-.00757325-.2521066-.0051669-.50617635-.01093453-.76039337-.01674718l-.00049081-.00015026c-.25108151-.00377895-.50573308-.02046695-.76282612-.0309194-.25747443-.01271764-.5142267-.02252874-.77050075-.03917603-.25793708-.01823038-.5163649-.0366109-.77626522-.05544204-.13027053-.00924498-.25990022-.0188311-.3906616-.02822625-.12986113-.01234243-.25923133-.02453465-.38909235-.03687715-.26070376-.02498513-.52322058-.05106227-.78554672-.07600677-.26123513-.0267591-.5231642-.06178742-.78806632-.09235413-1.05364986-.12420361-2.11515875-.29646686-3.18575842-.4881624-.26675273-.05261758-.5336555-.10474408-.80089904-.15751193-.13411258-.02653404-.26807507-.05355936-.40267837-.08024363-.13306227-.0299725-.2669153-.05911283-.4006184-.08874429-.26838764-.05956328-.53613444-.1194677-.80550377-.17933133-.26790944-.06639948-.5363096-.1329492-.8053507-.1991578l-.40252527-.1000701-.40193752-.10902127a7650.84224938 7650.84224938 0 0 1-.80523815-.22060796c-.26808459-.07988097-.53631905-.1592707-.80523513-.23994325l-.40305365-.12117924-.01030743-.0031513c-.12908871-.03946638-.25892113-.08352516-.38985454-.12573704-.268097-.08686737-.53540306-.17456685-.80369077-.26256676l.00049075.00015014c-.26606508-.0900053-.53195186-.18586447-.79927055-.28055031l-.00049075-.00015014-.00049084-.00015017c-.53300223-.18242612-1.06005563-.39311043-1.59384574-.5940395-.26363607-.10322706-.52566225-.21348128-.79055192-.32138898l-.39708913-.16178642c-.13008616-.05376917-.25965348-.1127508-.39257502-.16953605l.00098159.00030031c-.26165733-.11497538-.52380541-.2301009-.78610356-.34473523-.26026619-.11777236-.51839097-.24079776-.7787385-.36181771l-.39029615-.18226674c-.12813553-.06015489-.25477056-.1252218-.3855914-.18888395l.00049085.00015017-.77100455-.38362155-.76383026-.4018367-.38184006-.20116394.00049075.00015014c-.12539394-.0673727-.24992817-.1393165-.37717594-.20940487l.00049075.00015014-.75409242-.42141606-.74431411-.43937143-.37077997-.21980155-.3666067-.22819266-.00015006.00049119-.73261312-.45835007-.72215333-.47502284-.35937916-.23779762-.35437434-.24539733c-.23578585-.1645305-.47221252-.32871998-.70750753-.49310032-.23266285-.16948325-.46434415-.33866609-.6963662-.50849038l.00049085.00015017-.34729688-.2545111-.34081958-.2616601.00049075.00015013c-.22697654-.17580004-.45391237-.34997623-.68005738-.52498477-.22253123-.17981092-.44540318-.36026339-.66793442-.5400743l-.3327605-.27047367.00049075.00015014c-.10954778-.08937985-.21676354-.18288022-.32575186-.2758487l-.00015006.00049119c-.21733563-.18627795-.43448065-.37142339-.65079408-.5557772l.00098159.00030031c-.21424083-.1858681-.42392697-.37786223-.63647659-.56750982l-.00034077-.00064136c-.42478657-.37329122-.83059164-.76655594-1.24291453-1.15429546-1.62720274-1.5635353-3.12789588-3.21619424-4.50188214-4.9111876-1.37127286-1.6968487-2.60265316-3.4475734-3.7032972-5.20287553-1.10019377-1.75677588-2.06433375-3.5197247-2.90191382-5.2595247-.83822098-1.73945899-1.54580557-3.45505896-2.14064752-5.10930563-1.19183779-3.3102268-1.9094594-6.37383633-2.36139354-8.94740458l.00034075.00064146c-.19822747-1.16765037-.3426578-2.23558676-.44831823-3.18799676.09306174.6176915.19524834 1.21078231.2971662 1.78015771l.00034078.00064136c.37759781 2.0035014.82732661 3.70411845 1.2700118 5.11683465l.00034078.00064136c.90155421 2.82340188 1.73200045 4.4987135 2.2023411 5.193711l.00034074.00064144.00083153.0007915c.1522161.21147023.2585816.33586317.3837067.37952053l.13366857-.0106628.08536404-.09849086-.00015006.00049119.00015006-.00049119.01565848-.04247496c.0287693-.09593476.03386153-.2232844.02649925-.39419156l-.00015006.00049119c-.00444233-.09965151-.01614971-.21065703-.02905438-.33706805l-.00083162-.00079153.00068155.00128271c-.0127547-.12690223-.03010165-.26863765-.05170007-.42456459l.00030013-.00098237-.00015007.00049118c-.09122043-.62196226-.24896449-1.47590332-.43761975-2.56596562-.04738884-.2717788-.09612512-.55847194-.14817197-.86068023-.04797036-.3014981-.09811966-.61870215-.15074803-.95062975l-.00034068-.00064133c-.05609202-.3276163-.09905138-.67538441-.15162037-1.03737235-.02594373-.18035256-.05196881-.3639527-.07856587-.55095066-.02305218-.1880616-.04603552-.37986204-.0707226-.57486934l-.00023133-.00275638.00023132.00275638c-.19297-1.56082197-.35776187-3.35794676-.42628914-5.38235761l.00030014-.00098238-.00049084-.00015017c-.01244851-.25088246-.0146434-.50722127-.01858276-.7683908-.00389864-.25954566-.00871013-.5231305-.01262131-.7896625.001597-.2669951.0034128-.53822027.0045065-.81235184l.00049075.00015014c.0001343-.0724695.00090944-.14528016.00119384-.21824095.09863339 1.24245101.23950639 2.38879204.40490975 3.43199313.05242505.3238086.10992387.636279.16197062.93848726l.00015007-.00049119c.05114652.30515554.11253404.59786827.1713739.87959615.05948065.28138693.11290912.55447662.17548768.81693814l-.0001501.00049129c.06268802.2603465.12301893.51084087.18163355.75114204l.00034077.00064136c.03009816.11931829.05853327.23705358.087378.3516914l.0001907.00113254.00019068.00113264c.0320895.11455643.06296609.22605618.0931206.33464941l.00034075.00064146c.06178138.21763692.12135562.42493049.17710044.62192136.05612622.19925606.1174354.38505872.17487455.55893487l-.00015007.00049118c.05807994.1735352.11331208.33706791.1659964.48961594l.00049076.00015014c.0534752.1517158.10134846.2936607.1539952.42524963.05177456.1291737.10051053.24721234.14733963.35392519l-.00034078-.00064136c.09301725.2137668.17467111.38216142.24692468.50578478.08287288.13278087.13694506.21753981.23511695.25456136l.13578491-.02988852.06330633-.11061141c.05351532-.18396942.04676865-.53784473-.00652912-1.11705053l-.00049075-.00015014c-.08861417-1.14700138-.37100679-3.14769018-.5196825-6.14302347l.00049084.00015017c-.06942987-1.49616492-.0945915-3.24089707.00431473-5.237172l-.00015006.00049119c.0132105-.2505508.0235856-.50411758.03972829-.7607537.01840598-.25701776.03703086-.51826556.05685608-.78344291l.00030013-.00098238-.00049084-.00015017c.016621-.26347227.04334555-.53190971.06994813-.80521857l-.00014997.00049122c.0278843-.27399092.04953826-.55042528.08265875-.8292593l.00015007-.0004912c.1225847-1.12158743.294793-2.30372415.51636528-3.54380419l-.00014998.00049122c.34990979-1.93075144.7933994-3.67065995 1.27101387-5.23415802.13354595-.4371703.26987104-.86059955.40735283-1.2702469l.0006002-.00196488-.00075026.00245606c.64033017-1.87304033 1.31373172-3.46256933 1.95622612-4.80159134.08071226-.16759084.1592426-.33155244.23638178-.49271705.08159707-.15818924.16195302-.3140726.2396361-.4664769l-.00014996.00049121c.07881474-.15259518.1555976-.3020522.23053917-.44723856.07400065-.14386304.15427224-.2836587.2298672-.42219987l-.00079089.00083224c.15383456-.2751987.29414255-.5394972.43852389-.78375018l-.00015007.00049119c.14615387-.24478478.28591174-.47917309.4175417-.70100909l.00015008-.00049118c.06477873-.11016084.13130183-.215491.1970747-.31836518.06626357-.10272396.13064526-.20280106.19314506-.30023133l-.00064079.00034095c.12696284-.19425979.2434939-.37720944.35748659-.54482228.2338343-.33504734.44088436-.6245786.62258187-.86976717.37725925-.48130072.64709683-.79190383.81766565-.93038876.04803858-.03954972.08764922-.06556471.11411467-.07841423l.00546754-.00208683"/><path d="M144.411858 38.1643547c-.109316-.3128108-.219659-.6189442-.331542-.9189138-.107776-.2902103-.216579-.5737432-.326409-.851626-.021042-.0698559-.041571-.1397119-.062613-.2090541h.000513c-.079036-.2624734-.156533-.5223786-.233003-.7781746-.081602-.2537414-.163204-.5044009-.242754-.7514649-.080063-.248605-.157046-.4931007-.242241-.7293782h-.000513v-.0010273c-.656924-1.9159017-1.33951-3.5862803-1.980011-5.0224361l.001026.0025682-.001026-.0025682c-.080576-.1792627-.158586-.3559571-.235569-.529056-.080063-.1710443-.158586-.3390068-.236083-.5038873-.156019-.3307884-.298695-.6507902-.448043-.9476779l-.000513-.0005137c-.147295-.3020242-.287917-.5906935-.421868-.8649808-.138057-.2737736-.268416-.5336788-.393129-.7797155-.498852-.9872287-.899165-1.7576986-1.168093-2.3257917v.0005137-.0010273c-.066206-.1427938-.1242-.27326-.17347-.3908851l.001027.0010273-.001027-.0005136c-.049269-.1171114-.092893-.2198408-.126252-.3138381v.0005137c-.056968-.1612851-.089301-.2845602-.089814-.3847213l.002566-.0452009.052862-.119166.124713-.0493101c.132411.0051365.270468.09297.47781.2506595l.001026.0005137.000513.0005136c.652819.5270014 1.936388 1.8861102 3.623349 4.3223359l.000514.0005137c.836039 1.2214515 1.762918 2.7161631 2.7093 4.5216308l.000513.0005136c.263796.5146739.534777 1.0519482.804219 1.6154185-.379271-.8798766-.829367-1.858887-1.360039-2.9175126l.000513.0005137c-1.184003-2.3288736-2.765241-5.0486322-4.872018-7.86547-1.052106-1.4079052-2.229951-2.8414928-3.539694-4.259671-1.30923-1.4186918-2.746252-2.8224879-4.31158-4.1805695-1.565327-1.3565406-3.2543417-2.6704485-5.0613972-3.89190004-1.8091083-1.21888331-3.7270197-2.360206-5.7398773-3.3792808-.5075767-.25014588-1.0105345-.50748281-1.5258096-.74016471l-.0005132-.00051365c-.258664-.119166-.5152752-.24141389-.7744524-.35647072h.0010265c-.2607169-.11300224-.5224603-.22651814-.7847168-.34106132v.00051364c-.1313849-.05701477-.2612301-.11505683-.3921018-.16847607h.0005132l-.397234-.16128503c-.2653358-.10683848-.531185-.21419062-.7965208-.3210291-.2673888-.10118838-.5352908-.20134946-.803706-.30305148h.0005132l-.4023662-.15049845-.406472-.14176645h.0005132c-.2714946-.09451097-.5424759-.18850829-.8144837-.28250562-.2730342-.08834721-.5470949-.17618077-.8206423-.26452798l-.4105778-.13097988-.4131439-.12224788-.8293671-.24295483-.8344993-.22394991v.00051365l-.4172497-.11094766-.4187893-.10170202-.8401448-.20237675-.8442505-.18234453h.0005132c-.1421626-.0297915-.2822722-.06215124-.4218687-.08988815h.0005133l-.4239216-.08064252-.8478431-.16077137-.8493828-.14125281h.0005132c-.1437022-.02260045-.2838118-.04776913-.4239215-.06780135l-.4264877-.06009665c-.2843251-.03955078-.5671105-.0816698-.8504092-.1181387-.2843251-.03287339-.5686502-.06626042-.8524621-.09964744h.0010264c-.1437022-.0154094-.2848383-.03390068-.424948-.04725549l-.4270008-.0385235c-.2848384-.02568232-.5676238-.05444653-.849896-.07601968-.5691635-.03595526-1.1347344-.08321075-1.6977391-.10170203h-.0010265c-.2832987-.01232751-.5655709-.02619597-.8463034-.03441432h.0005132c-.2822722-.0056501-.563518-.01130022-.845277-.01592304-.1375436-.00205459-.2745739-.00616376-.4095513-.00616376h-.0107777L96.662689.1822452c-.2807326.00154094-.5604387.00410917-.8401448.00616376a7664.08156918 7664.08156918 0 0 0-.8344993.02465503l-.4162232.01335481-.4141704.0220868c-.2766268.0154094-.5527403.03030515-.8283406.0452009-.2750871.02157316-.5486346.04263267-.8226953.06420583-.1365171.01078657-.2730342.0220868-.4090381.03235973-.1365171.01386846-.272521.02722327-.4085249.04109173-.2709813.02773691-.5414494.05598747-.8119175.08372439-1.0798196.12995258-2.1452689.2758282-3.1891629.4653638-.2622565.04828277-.5229734.09142908-.780611.14228009-.2581508.0529056-.5168147.1047839-.7734259.15717585-.1277923.02619598-.2550714.05239195-.3828637.07858793-.1277924.02927785-.2545583.05804206-.3818374.08731992-.254045.05804206-.5065503.11608412-.7585424.17412619-.2499392.05906935-.4983388.12481611-.748278.18799464-.2489128.06523312-.4973123.12378882-.7385268.19364476h-.0005132c-.244807.06882864-.48946.13765728-.7320602.20648592-.1206585.03390067-.2411631.06831499-.3616164.10272932-.1202992.03698255-.2395721.0739651-.3602819.11043401-3.8266876 1.16443678-7.2402312 2.69458992-10.1175089 4.32695873-1.4399989.81515711-2.7479458 1.65445561-3.9221469 2.47783106h-.0001539l-.0004106.00051365c-.5886146.40629444-1.1359148.82337546-1.6613517 1.21836966-.5162502.4078354-1.0084303.7899884-1.4552929 1.1747097l-.0004106.0005137h-.0003592c-1.8115205 1.5229621-3.0869804 2.8450883-3.8466006 3.7449971h.0002053c-.1910213.2270318-.3536101.4211902-.4749358.5912072l-.0004106.0010273h-.000154c-.1243024.1705307-.216939.3122971-.2762675.4201629-.0437265.0775607-.0673861.1407392-.0747765.1736126l.007801-.0010273h.0010265c.1110613-.0184913.3977472-.1828582.8293671-.4807732.4346479-.297915 1.0282407-.7288645 1.8016666-1.286171.192253-.1422801.3999541-.2861012.6166878-.4381406h-.0002053c.217093-.1540939.4450663-.315379.685049-.485396h.0007699l.0008211-.0010273c.4871505-.3271928 1.0123822-.6995866 1.605821-1.0807124l-.0006158.0005137c1.1759973-.7704699 2.5717565-1.6344234 4.2296696-2.5338186 1.6575538-.89682687 3.5751059-1.8357728 5.7980253-2.71308115h-.0006158c.1383647-.05547383.2778585-.11094766.4182248-.16744878h.0007698c.1421625-.05547383.2857108-.10735214.427822-.16077138h.0006159c.2868912-.10529755.5761433-.2172725.8744793-.32257005h.0004106c.2973096-.10272931.5980065-.20648592.9029632-.31229711l-.0008212.00051364.0009752-.00051364c.3067529-.10529755.6197158-.19980852.9326274-.30151054l.0008211-.00051365h.0002053c1.2644256-.39602151 2.6053726-.76738798 4.0264849-1.09201261 1.4211124-.32565193 2.9228006-.60353472 4.5024986-.81669805 1.5791847-.21367698 3.2374057-.36314813 4.9690175-.42427207.5943113-.02105951 1.1973474-.03184609 1.8085951-.03184609 1.1696335 0 2.3700602.04006443 3.5976878.12635706 1.870695.12738435 3.8040031.37547564 5.7876069.75095129 1.976932.36931188 3.8496799.85624883 5.6182437 1.41560995 1.7680505.55987477 3.4308905 1.19679652 4.9880067 1.88765116 1.556603.69393652 3.0079955 1.43923769 4.3593096 2.21433042 1.3513141.7750926 2.6025499 1.5815177 3.7578131 2.402325 1.1557764.8208072 2.2176332 1.652401 3.1973744 2.477831l.0005132.0005137.0005132.0005136c.2417277.2085405.4808893.4150265.7174847.6184305l.0005132.0005137c.2350558.2069995.4603604.4165673.6846385.620485.1113692.1011884.2242781.2018631.3346209.3061334h.0005132c.1082899.1037566.2155533.2064859.3223035.3087016v.0005136h.0005133c.2109343.2044313.4244347.4026989.6286972.6081575 1.6289677 1.6262051 2.9710437 3.1758768 4.0698517 4.609978 1.100862 1.4346149 1.969747 2.7444137 2.670296 3.8980639l.000513.0005136c.693363 1.1587867 1.220956 2.1603975 1.626401 2.9971278v.0005136c.20221.4206766.366954.8018023.514762 1.1356726l.000513.0010273c.143189.3390067.256611.6384627.352071.8947723v-.0005136c.096999.2573369.164231.4782049.214013.6579812v.0005137c.04927.1802899.07955.3220564.091354.4314631l.005132.0904018c-.000513.0513647-.005132.094511-.025661.13663-.01745.0416054-.070311.0791016-.119581.0791016h-.005645c-.058508-.001541-.100592-.0267097-.147295-.059583-.045677-.0333871-.094946-.0791016-.149861-.1376573-.109316-.1165978-.241728-.2840466-.39826-.5008054-.497826-.6631178-1.232247-1.790572-2.261771-3.2020728-.129332-.1766944-.262256-.3580116-.397747-.544979-.13703-.1838855-.282785-.3708528-.429054-.5650112l.000514.0005136-.001027-.0010273c-.287404-.3878031-.608681-.7822837-.936117-1.1993647-.161665-.2059723-.338727-.4104036-.514249-.6251079l.000513.0005137c-.086734-.1058112-.175522-.2131634-.264822-.3220564-.086735-.1058112-.181168-.2095678-.275601-.3194882-.186299-.2152179-.376192-.434545-.569163-.656954-.197077-.2182998-.397747-.4396814-.600983-.664145l.000513.0010273c-.822182-.8916905-1.720321-1.8080359-2.6949299-2.7223268-.974609-.9142909-2.0303071-1.8203635-3.1516977-2.7038356-2.2432943-1.7654033-4.7719402-3.4188316-7.478161-4.8108138-.6748872-.3477387-1.3605521-.6795544-2.0544285-.9944198-.5799411-.2753145-1.1624483-.5357333-1.7464952-.7822837h.0005132c-2.7508711-1.1659777-5.5284298-2.02068561-8.2202803-2.59802436 1.191702.23576378 2.3962345.52289222 3.6002539.86549446 2.896113.8192663 5.7850408 1.9564798 8.4989599 3.3566804 2.7164852 1.3971186 5.2543691 3.0561971 7.505875 4.8282778 1.1249831.8860403 2.1842738 1.7951947 3.1629885 2.7130812.9782016.9178864 1.8789061 1.8373137 2.7036551 2.7310588l.000513.0005136c.203749.2249772.404419.4468725.602523.6651723l.000513.0010273.000513.0005137c.192972.2229226.382864.441736.569164.6569539l.000513.0005137c.091867.1078658.187326.212136.278166.3230837.088788.1078658.177062.2147043.263796.3210291l.001027.0010273c.172956.212136.351044.4165674.516301.6271624.325897.4155401.6482.811048.938684 1.2029603h-.000513c.145242.1926175.29151.3795848.43008.5660385l.000513.0005137c.136004.1869673.268415.3677709.397747.544979 1.03209 1.4145827 1.769077 2.5461461 2.260744 3.2000182v.0010272l.000513.0005137c.144729.2008358.268416.357498.366441.4648501.069798.078588.131898.129439.166284.1510121l.003593-.0313324-.004106-.0719105v-.0005137c-.010265-.09297-.038492-.2290863-.086221-.4042398v.0005136c-.048757-.1766944-.113936-.3919123-.208882-.6435991-.095972-.2552824-.208368-.5521701-.349504-.8875813-.147808-.3348976-.312039-.7134551-.512196-1.1295088-.403393-.8326211-.927906-1.8296091-1.618703-2.983773v.0005137c-.697469-1.1490274-1.563275-2.4531761-2.659517-3.8826545-1.094703-1.4279374-2.431647-2.971959-4.0554824-4.5930276l-.0005132-.0005137c-.2001567-.2018631-.4136571-.399617-.6261311-.6055893h.0005132c-.1072634-.1022156-.2145269-.2054586-.3228168-.3081879h.0005132c-.1077766-.101702-.2196591-.2018631-.3320547-.3040788l.0015396.0020546-.0015396-.0015409c-.2253046-.2044314-.4495827-.4134855-.6820724-.6179169-.2365954-.203404-.4752437-.4098899-.7174846-.6184304-.9761487-.8228618-2.0344129-1.6513738-3.1855703-2.4690991-1.1506443-.8177254-2.397261-1.6210686-3.7434429-2.393593-1.3466951-.77201084-2.7929553-1.51474379-4.3439129-2.20611207-1.5509575-.68828641-3.2086653-1.32263993-4.970044-1.88046011-1.7624051-.55782017-3.6284811-1.04321618-5.5982279-1.41098713-1.976932-.37393471-3.9040815-.62151235-5.7675913-.74838306-1.224035-.08577897-2.4198428-.12584341-3.5858837-.12584341-.6091948 0-1.210178.01078658-1.8024364.03184609-1.7259663.06112394-3.3780287.2095678-4.9525944.42273113-1.5740526.21264968-3.0706086.48950518-4.4865887.81361617-1.4164933.32411099-2.7530779.69393652-4.0136544 1.08893073-.3151697.10272932-.6269009.19672664-.9292401.30048325h.0002053c-.3049053.10529755-.6056022.2095678-.9029119.31229712l.0005646-.00051365c-.2951028.10427025-.5837903.21573156-.8722725.3220564l.0006159-.00051365c-.1435483.05393289-.286686.1058112-.4262311.15974409-.1401097.05598747-.2794495.1114613-.4171983.16693513h-.0004106c-2.2152724.87422647-4.126204 1.81060417-5.7789335 2.70486287-1.6529348.8963133-3.0444342 1.7576986-4.2176602 2.5261138h-.0005646c-.5890251.3785576-1.1124605.7494104-1.6020231 1.0786578-.2395722.170017-.4673402.3307884-.6838687.4843688h-.0001539c-.2179655.1535803-.4250507.2968877-.6142757.4371132l-.0006159.0005136h-.0004105c-.7734259.5573066-1.3668648.988256-1.8051052 1.2887393-.4404473.2994559-.7124551.4684457-.8924935.5069691h-.0002053c-.0002052 0-.0006158.0005137-.0008211.0005137v-.0005137l-.0603549.0071911-.1122417-.0410917-.0435213-.1124886c.0020016-.0826971.0382864-.1648806.098436-.2773692.0651793-.1181387.1609978-.264528.288123-.4386541.1276897-.1792627.29228-.374962.4829421-.6019938.7670106-.9086408 2.0482699-2.2364172 3.8666162-3.7650294.4518408-.3888305.9464331-.7725245 1.462478-1.1803598l.0007699-.0005137.0008211-.0010273c.5246671-.39448054 1.0739688-.8131025 1.6671511-1.22247881l-.0005646.00051364c1.1783583-.82645733 2.4909241-1.66883771 3.9361579-2.48656306C74.3551773 4.95967196 77.7799605 3.424896 81.6196838 2.2568637c.1196834-.03646891.2390076-.07345146.3592556-.11094766h.0010264l.0009751-.00051365c.1209152-.03390067.241779-.068315.363464-.10272932.2428054-.06934228.4874585-.13817092.7322655-.20648592h-.0005132c.2473731-.07139687.4973123-.12995258.743659-.19467205h.0005132l.0005132-.00051365c.2483996-.06266488.4973123-.12892529.7508441-.18850829h-.0005132.0010264c.2519921-.05855571.5044975-.11659777.7585425-.17463983.1272791-.02927786.2545582-.05752842.3818373-.08731992h.0010264l.0010265-.00051365c.1283055-.02619597.2566111-.05239195.3849167-.07858792.2571243-.05239195.5152751-.1047839.7739391-.15717585.2612301-.05239195.5234866-.09502462.7836903-.14279375C88.7062049.62038571 89.7747336.47399644 90.856606.3445575H90.8581457c.2704681-.02825056.5419626-.05650112.8134572-.08423803.1365171-.01386846.2730342-.02722327.4090381-.04109173l.0010264-.00051365h.0010265c.1365171-.01027293.2735474-.0210595.4105778-.03184608.2740606-.0220868.5481213-.04314632.8237216-.06471947h.0020529c.2756004-.0154094.5522271-.03030515.8293671-.04571455l.4162232-.0220868h.0010265l.4172497-.0133548.836039-.02465504h.0020528c.2797061-.0020546.5594123-.00410918.840658-.00616376L97.0825048.008119h.0118041c.1390832 0 .2761135.00410917.4121174.00616376.2822722.00462282.5640312.01027293.8463034.01592304h.0010265c.2832987.008732.5660841.02260045.8488695.03441432h-.0010264c.5691634.01900493 1.1367872.06626041 1.7038978.10221567h.0010264c.2853516.0220868.5691635.05085101.8524621.0760197l.4270009.03903713c.1447287.01335481.2868912.03235974.4280273.04725549l.0005133.00051364c.2838119.03287339.568137.06626041.8524621.09964744h.0010264c.2858648.03698255.5691635.07858793.8529753.11813871l.4270009.06009665c.1442155.02105951.2853516.0462282.4264877.068315h.0005132l.8519489.14176645.8493828.16077138.424948.0816698c.143189.02825056.2838119.0606103.4239215.0904018h.0005133l.8463034.18285818.8416844.20237675.4213555.10221567.0005132.00051364.4177629.11043401.8370654.2249772.83142.24295483.0005132.00051365.4146836.12276153h.0010264l.4116043.13149352c.2740606.08834721.5486345.17669442.822182.26504163l.0010264.00051365h.0005132c.272521.09399732.5440156.18850829.8149969.28301926h.0005132l.4080117.14279375h.0010264l.4033927.15101209c.2684152.10118838.5368304.2018631.8052457.30356513h.0005132l.0010264.00051364c.2658491.10735214.531185.21419062.7965209.32102911h.0005132l.397234.16179867c.133951.05496018.2648227.11351589.3951811.16950337.2627698.11454319.5239999.22805908.7847168.34106132l.0005132.00051365c.2617434.11659777.5193809.23884566.7765053.35698437h-.0005133c.5204074.23576378 1.025418.494128 1.5319684.74324659l.0005132.00051365c2.0200426 1.02318397 3.9435995 2.16758853 5.7583533 3.39006738h.0005132c1.8132141 1.22607438 3.5073604 2.54409148 5.0773074 3.90474128 1.57046 1.3621907 3.012101 2.7706096 4.325437 4.1939242 1.314362 1.422801 2.495286 2.8610114 3.551498 4.2730259 2.113449 2.8265971 3.699819 5.554574 4.886902 7.8906386v.0005137c1.176305 2.3453102 1.956403 4.3007627 2.453202 5.6573033.062613.1689897.12112.3282202.176548.478205l.000514.0005136v.0010273c.051835.1515258.100591.2922649.145755.4237584.090327.2619598.165257.4833415.226331.6615768v-.0010273c.063639.18029.103671.3210291.132924.4104036l.000513.0005137c.028741.0919427.043624.1386846.043624.1386846l-.082115.0256823.081089-.0282506-.081089.0282506.082115-.0256823-.163204.0544465c-.053889-.154094-.105724-.3061334-.160639-.4556045-.056454-.1499848-.112909-.299456-.16885-.4473862v-.0005136c-.113935-.2968877-.220172-.5896663-.335134-.8721719-.233003-.5716886-.455228-1.124886-.69285-1.6508601l-.000513-.0005136v-.0005137c-.459847-1.0617074-.944329-2.0350677-1.408795-2.9395993l.000513.0005136c-.943303-1.7993039-1.867103-3.2883653-2.699549-4.5046804l.000513.0005136c-1.679263-2.4264664-2.960266-3.7788978-3.589989-4.2863806-.18476-.1474166-.325383-.213677-.367467-.213677h-.007185l-.003593.0179776-.000513.0005137-.001027.0231141c-.001026.0606103.025148.1751535.080063.3261656v.0005136c.030793.0868063.073391.187481.12266.3040788.048243.1155705.105211.2439821.17039.3852349v-.0005136c.266362.5629566.666676 1.3334265 1.165528 2.3211688.125226.247064.256097.5074828.394154.7807428l.000513.0010273c.133951.2748009.274574.5629566.421869.8649808.151401.3015106.29459.6225397.449583.9512735.077496.1648805.156533.332843.237108.5049146v.0010273h.000514c.076983.1736125.154993.3503069.235569.5290559v.0005137c.642041 1.440265 1.326679 3.1152664 1.985656 5.0368183.086735.2403866.163718.4864233.243781.7334873.079549.2475776.161152.4987508.243267.7535195l.000514.0010273v.0005136c.07647.2563097.153966.5157012.232489.7781746h.000513c.039005.1320072.078523.2640143.118042.3970488l.000513.0005136.000513.001541c.036439.1340617.072878.2681235.110856.4037262v.0005136c.073391.2717191.148834.544979.224278.8238891l.000513.0005137v.0010273c.03336.1325208.066719.2660689.100592.4001307M93.0993871 103.185847c-2.498879 0-4.9315523-.179776-7.256449-.507483-.586613-.092456-1.1675805-.171558-1.7367439-.278396l-.0005133-.000514c-.2874044-.052392-.572756-.09862-.8534885-.155635-.2822722-.058042-.563518-.114543-.8432241-.171044l-.0010265-.000514c-.27714-.052905-.5517139-.121734-.8293671-.183372l.0005132.000514c-.1380567-.031332-.2750871-.062665-.4116042-.094511l-.2042624-.046742-.203236-.051364c-.5424759-.137144-1.0784852-.269665-1.6017666-.421704h-.0013857c-1.0521055-.287642-2.0667458-.618431-3.0526457-.953328-.9815375-.34928-1.9309986-.7031825-2.8374004-1.0853355h-.0009751.0006158c-3.2413575-1.345754-5.9951027-2.8800163-8.2420409-4.3397999.2842738.1766944.5683423.3497933.8520002.5182694 2.9624727 1.7659169 5.879833 3.0885568 8.6377866 4.080922 1.3799006.4951553 2.7202831.913777 4.0155533 1.258434 1.2956808.341575 2.5438373.61689 3.7375921.841353h.0010265-.0005132c2.3921287.429922 4.5671645.659009 6.5081709.736569.6805327.028765 1.3323249.042119 1.9548635.042119 1.1511574 0 2.2022365-.044687 3.1516976-.114543 1.4631966-.109406 2.6872316-.274287 3.6782637-.458686.2468599-.046742.480376-.086806.7010615-.135603.2186327-.048283.4228951-.095538.6127873-.140225l.0005133-.000514c.189379-.045715.3654142-.088347.5296453-.134575h.0005132c.1621782-.046742.3099862-.092457.4439372-.135603.2694417-.08732.4839686-.16899.64666-.243982l.0010265-.000514.0005132-.000514c.161665-.079101.272521-.150498.3387267-.231654.0313065-.03801.0544015-.083211.0549147-.13663-.0010264-.089375-.0651792-.149471-.1360038-.187481-.073904-.039551-.1698766-.068829-.2945896-.093997-.1626914-.035442-.3746522-.066261-.6363955-.088861-.1888658-.018492-.4013398-.029278-.6379353-.042633 2.7154588-.3477387 5.3641987-.9173728 7.8954107-1.687329.2596904-.0744787.5091164-.159744.7539234-.236791l.0015397-.0005137.0015396-.0005136c.2437806-.0801289.4957727-.1556349.7498177-.2460367.489614-.171558.9843602-.3384931 1.4729478-.5280287.9766619-.3605799 1.9225304-.7658471 2.8494097-1.1752234l.0010265-.0005136.0010264-.0005137c1.8542719-.842894 3.6146241-1.780299 5.2707922-2.7906418l.0010265-.0005136c3.3041246-2.0330132 6.1750897-4.3521275 8.5785094-6.7380158.4454769-.441736.8745306-.885013 1.288701-1.3288037.0087247-.008732.0179627-.0174639.0272007-.0261959.1981038-.1910766.3962076-.3816394.5937982-.5716887l.0005132-.0010273.0005132-.0005136c.1929716-.1946721.3849167-.3888305.5763485-.5829889.0964858-.0965655.1919452-.1936447.2874045-.2902103l.0005132-.0005136.0010265-.0010273c.0928932-.0991338.1862998-.197754.2786798-.2963741.186299-.1977539.371573-.3944806.556333-.5912072l.000513-.0005137.001026-.0010272c.180141-.2008359.359769-.401158.53837-.6009665.089301-.1001611.179115-.1998086.268416-.3004833.0893-.101702.175522-.2044313.261743-.3056197.172956-.2039177.345399-.4062944.517328-.6086712l.001026-.0005136c1.3585-1.6380189 2.583561-3.3268889 3.681857-5.0424684 1.090084-1.7202024 2.053915-3.4660871 2.896113-5.2176219.837065-1.7541031 1.550957-3.5143699 2.155533-5.2607682.037978-.1083794.075957-.2172725.113935-.3261656l.000514-.0010273v-.0005136c.035412-.1088931.071337-.2182998.10675-.3277065v.0005136c.070824-.2177861.141136-.4350586.210934-.6518175.073904-.2182998.133951-.4381405.19913-.6528448l.000514-.0005136c.064666-.2162452.128818-.4324904.192458-.6477084l.000513-.0010273v-.0010272c.118041-.4324905.238135-.8629263.350018-1.2928485v-.0010273c.053375-.2147042.105723-.4294085.158585-.6425718l.000514-.0020546v.0015409c.051835-.2131633.10675-.4252993.151913-.6410309.390562-1.7073612.682586-3.3854446.888901-5.0239771.283299-2.2436083.405959-4.4106831.405959-6.4811925 0-.954869-.025661-1.8886784-.074417-2.8004011-.073904-1.4459151-.212987-2.8353291-.391589-4.16516-.022582-.1669352-.04465-.3313021-.065692-.4951553l-.000513-.001541v-.0010273c-.026175-.1633396-.050809-.3266792-.076471-.4889915-.051835-.3230837-.095459-.6466811-.155506-.9656556v.0010273c-.056968-.3169199-.112909-.6302443-.168337-.9404869v-.0020545c-.063126-.3087016-.1242-.613294-.185786-.9158319-.013344-.0703696-.027714-.1402255-.042598-.2095678.705168 2.3447966 1.302045 4.9828854 1.665406 7.8680382v.0005137c.267389 2.0463679.400314 4.2154974.400314 6.4755423v.0493101c-.005132.2855875-.009751.5716886-.014884.8598443-.002566.1433074-.005132.2871285-.007698.4319768-.006672.143821-.012831.2886694-.018476.4340314v-.0005137c-.013344.2912376-.022582.5824752-.039518.8747401-.020016.2922649-.039005.5865844-.059021.8819312v.0005136c-.01591.2927786-.049269.5870981-.074417.886554v-.0005136c-.027714.297915-.051835.5963437-.089301.8927177v.0005137c-.034899.2989423-.069798.5983982-.104184.8988815-.042597.3015105-.084681.6035347-.127279.9060725-.70568 4.8354689-2.172983 9.8830737-4.52354 14.7185426v-.0010273c-.148835.3009969-.298696.6025074-.448557.9050452-.153453.299456-.313065.597371-.471138.8978542v.0005137c-.153966.2994559-.323843.5922345-.4891.8911768v-.0005137c-.083656.1484439-.166284.2968878-.24994.4458453l.000514-.0005137c-.083142.1463893-.17193.2917513-.258664.4407088v-.0010273c-.087248.1469029-.174496.2938058-.261744.4407088-.087761.1474165-.172956.2943194-.263796.4360859l-.000513.0005136c-.182194.2902104-.364388.5804207-.546582.870631-.377731.5742568-.75341 1.1500547-1.153723 1.7104431l-.000514.0010273c-1.580724 2.2595312-3.374436 4.4029784-5.32468 6.4056864-.9802546.9964743-2.0005404 1.959048-3.0562385 2.8825845-1.0582642.9194274-2.1591259 1.7936539-3.288728 2.6267886-.2858648.2059723-.5660841.4165674-.8534885.6153486-.2884309.1992949-.577375.3980761-.8658059.5968573-.586613.3867759-1.1711731.7730381-1.7695902 1.1356726-1.1942681.7314327-2.4106048 1.4207464-3.653629 2.0468816-4.9679911 2.5225178-10.277275 4.1631058-15.4941788 4.9556618-2.6307771.402699-5.2364063.587612-7.773777.587612m-4.1786553-5.4066438c-.6081683 0-1.2502093-.0143821-1.9245833-.0554739h-.0005133c-1.1131789-.0631785-2.3187379-.1710443-3.610005-.3677709h-.0005133c-1.8368223-.2763419-3.857994-.7036958-6.0283595-1.363218-.2391615-.1027293-.4795548-.2064859-.722155-.3107562-.555717-.2532277-1.120826-.5054282-1.6828043-.7863929l-.0005646-.0005136c-1.1307311-.5542247-2.2796304-1.1644368-3.4307878-1.8496413-1.1507469-.6852046-2.3077038-1.4382104-3.4602469-2.2641541h.0002053c-.1531455-.1104341-.3026985-.2182998-.4502499-.324111-.1435482-.1058112-.2820669-.213677-.4191999-.3179473l.0003593.0005137c-.2732395-.2111087-.5354448-.4047535-.7714243-.6014801l-.0007699-.0005137c-.2393668-.1956993-.4663137-.3806121-.6810459-.5562792-.2090867-.1823446-.4071905-.3544162-.5920018-.5162148l.0004106.0005136c-.734575-.6513038-1.2526215-1.1685459-1.5922206-1.5450489l-.0004106-.0005136h.0002053c-.1712109-.1879947-.3009022-.3374658-.3845061-.4525227-.0515275-.0703695-.0878123-.1294389-.1090597-.1710443.0477296.0179777.1182977.0503374.2006699.0986202l.0012317.0005136.0007698.0005137c.2476298.1314935.6279274.3785575 1.1210827.7124278h.0004105l.0008212.0010273c.2493747.1623123.5266173.3492796.8291618.5562792l.0007698.0005136h.0006159c.3069582.2013495.6417331.4196493.9976014.6574677l.0007698.0005136.0008211.0005137c.1814241.1155704.3692634.2337091.5625429.3564707h.0002053c.1920478.1212206.3887145.2527141.6000081.3775302h.0002053c.2066746.1263571.418584.255796.6359336.3883168.1094703.0688287.221712.1340618.3353908.1998085h-.0004106c.1130628.0657468.2271521.1314936.3420113.1992949l-.0006159-.0005136c.4607196.2758282.9536695.5388152 1.4559088.8202935l.0007698.0005137.0012318.0005136c.2557899.1345754.5157883.2712054.7798411.4109173h.0004106c.0655385.0344143.1316928.0693423.1978472.1042702l.0008211.0005137.0013857.0005136c.0673861.0333871.1347209.0667741.2030821.1006748.1357472.066774.2716485.1345754.4089868.203404l.0011804.0005136h-.0007699l.0011804.0005137-.0004105-.0005137c1.1034277.5454927 2.2870721 1.0817397 3.5328164 1.5804906 1.2453851.5002917 2.5549229.9564099 3.8993085 1.3621907 2.6893358.8120752 5.5254017 1.3894139 8.2726803 1.6934927 1.7952513.2008358 3.5504713.2902103 5.200994.2902103.8735042 0 1.7177547-.0251687 2.5230004-.0724241.2935631-.0113003.5789147-.0364689.8581075-.0559875.2791929-.0205459.5553065-.0390372.8247481-.0678014.2689285-.0261959.531185-.0523919.7883094-.077047h.0015396c.2560979-.0308187.5065504-.0616375.7503309-.091429h.0005132c.120094-.0148958.2417277-.0272233.3623349-.0446873h.0005133c.0472164-.007191.0944328-.0138685.1411361-.0205459-.4747306.1001611-.8806894.1808036-1.2122309.2635007-.2052889.0467419-.3792712.0904018-.5224602.1330345-.1447287.04366-.2555847.0821834-.3530969.1376573l.0025661-.0010273c-.1098296.0621512-.2376219.1273843-.383377.1885083l.0005132-.0005137c-.1503741.0626649-.3223035.1263571-.5163015.1910766l-.0025661.0010272.0015396-.0005136c-.0954593.0323597-.1975905.0647195-.3053672.0975929l-.0015397.0005136h-.0005132c-.1041841.0328734-.2150401.0636922-.3305151.0924564l-.0025661.0010273.0010264-.0005137c-.2376219.061124-.4973123.1222479-.7785581.1838855-1.1208773.231141-2.5948515.4299222-4.4445044.4920734-.3628481.0092457-.7395532.0148958-1.1296021.0148958"/><path d="M132.46969 85.4367897c1.03055-1.2491885 1.941006-2.4875904 2.73958-3.6849005l.000513-.0010273c.094433-.1433074.188353-.2855875.281246-.427354l-.000513.0005137c.091867-.1391983.1863-.2809647.276627-.4294086.174495-.2809646.345912-.5583338.514762-.8310801l.001539-.0025683.00154-.0025682c.32333-.5521701.639988-1.0853352.921747-1.6185003.294076-.5275151.546582-1.0452708.792415-1.5296395l.001027-.0020546.001026-.0020546c.120607-.2491186.233003-.4931007.342833-.7283508l.000513-.0005137c.054915-.1186524.109829-.2352501.163718-.3518479l.000513-.0010273c.054915-.1207069.104184-.2388456.15294-.350307l-.000513.0005137c.801653-1.8347456 1.291267-3.3535985 1.561735-4.447152l.000513-.0020546c.06518-.2727463.119068-.5192967.161152-.7386238l.000513-.0005136c.042598-.2254909.064666-.4242721.07955-.5860708v-.0020546c.008211-.0955382.012317-.1828581.012317-.262987 0-.1011884-.006159-.1905629-.023608-.2748009-.01745-.0796152-.041571-.1592305-.105724-.2378184l-.015397-.0693423v-.0025682l-.000513-.0025682c-.007698-.0498238-.01283-.120707-.01283-.2080269l.002053-.1022157v.0010273c.005132-.1356027.018989-.2999696.042597-.4895052.011804-.0945109.026174-.1967266.042084-.305106l.000513-.0025683.000514-.0030818c.013857-.1083795.029253-.222409.046703-.3420887.12266-.7714971.304341-1.7936538.500905-3.0346239v.0102729c.000513.1510121.008211.264528.027714.3477388l.000513.0010273v.0010272l.046703.1022157.111369.0570148c.058508-.001541.098026-.0308188.134978-.0636922.037465-.034928.073391-.0801289.112396-.1386846.139596-.2095678.30588-.5886389.528618-1.1649504l.000514-.0015409v-.0005137c.103157-.2902103.217093-.6297307.343345-1.0201021l.000514-.0010273h-.000514.000514c.061073-.1972403.119067-.4068081.18322-.6287034l.000513-.0015409v.0010273c.031307-.111975.063126-.2260045.096486-.3441432.033359-.1181387.066719-.2409003.096999-.3682846v.0005136c.061587-.2506595.126253-.5157011.194511-.7925566v-.0005137c.068259-.280451.12574-.5752841.191432-.8814175V59.47401c.031307-.1520394.067745-.3102425.097512-.4746094.028741-.1607714.059021-.3261656.089301-.4951553l.000513-.0005137c.029767-.168476.061074-.3410613.092893-.5167284v-.0025682c.027201-.1766945.054402-.3569844.082629-.5408699.224278-1.4751929.404419-3.1989908.470112-5.1847485.011804-.4340313.018476-.8803902.018476-1.3390766 0-1.6411008-.084682-3.441432-.314606-5.3973982-.150887-1.2543249-.332054-2.4393076-.543502-3.5513524l.000513.0005136c-.050809-.280451-.111369-.55217-.163718-.8192662v-.0005137c-.054401-.2686371-.107776-.5347061-.169876-.7951249-.059021-.2604188-.117528-.5162148-.175009-.7679016v-.0010273c-.06056-.2516868-.124713-.4977235-.18476-.7396511v-.0005136c-.490127-1.9441523-1.025931-3.6109354-1.530429-5.0255181-1.019772-2.828138-1.87788-4.6675064-2.294103-5.7287002v-.0005136l-.000513-.0010273c-.218633-.5275151-.32179-.8726856-.319738-1.0005836l.001027-.0118138c.032846.015923.090327.0565011.159612.1212206.096486.0883472.220686.2213816.369007.3955078.074417.0862926.15448.1838855.240701.2912376.084682.1052976.170903.2254909.267389.3554435h-.000513c.094946.1294389.195024.2691508.300748.4175946h-.000513c.106237.1499848.217606.3071607.326409.4771777.111369.1730989.228897.3533888.351557.5434381v-.0005137c.06056.094511.122147.1921038.185787.2917513.06056.1006747.122146.2044313.186299.3102425l-.000513-.0005137c.125739.2126497.257124.434545.392615.6646587.134464.2290864.264823.4730685.404419.7257826.138057.2522005.281246.5121057.417763.7853656.13857.2748009.284838.5562793.428027.8480305.571217 1.1716279 1.153724 2.5065953 1.709544 3.9992522.110342.2968878.219659.5999392.327435.9086408.036439.1458756.073391.2927786.110343.4401951l.000513.0010273c.073904.281992.135491.5737432.203236.8685764v-.0005137c.06518.2953468.137544.5906936.195025.8906632l.000513.0005136c.061587.3025379.12266.6071303.185273.9163455.054915.3092153.111369.6225397.167824.938946l.000513.0010273c.059021.3122971.102645.6343535.15448.9600054.025661.161285.050296.3235973.07647.4874506.021042.1643669.043111.3292474.065693.4956689.178088 1.3257218.316658 2.7099994.390562 4.150778.048243.9091544.074417 1.839882.074417 2.7916691 0 2.0638319-.12266 4.2232021-.404932 6.4596193-.205803 1.6328825-.4968 3.3053157-.885822 5.0070268l-.000513.0010273v.0005136c-.044137.2111088-.099052.4222175-.151401.6374354v-.0005136c-.052862.213677-.10521.4278676-.158072.6420582-.111369.427354-.23095.8572761-.348991 1.2897666-.064153.2152179-.128306.4304358-.192459.646681l-.000513.0015409c-.066206.2177862-.125739.4350587-.19759.6466811l-.000514.0015409.000514-.0005136c-.069799.2167588-.140623.4340313-.211448.6518175l-.001026.0030818.001026-.0030818c-.034899.108893-.070825.2177861-.106237.3266792-.037978.108893-.075957.2172725-.113422.3246246-.602523 1.7412619-1.314362 3.4958786-2.148348 5.2438179-.839119 1.7448574-1.799871 3.485092-2.886362 5.1991306-1.09419 1.7094158-2.315146 3.3926356-3.669026 5.0244908-.171929.2023767-.343859.4047535-.516815.6081575-.086734.101702-.172442.2039177-.25969.3030515-.088274.0996474-.178088.1992948-.267389.2994559-.178601.1992949-.357716.3996171-.537857.6004529-.114448.1222479-.22941.2439821-.344885.36623"/><path d="M130.617984 87.549418c.655898-.7042094 1.272791-1.4099598 1.851706-2.1126283.115475-.1222479.230437-.2439821.344885-.36623.180141-.2008358.359256-.401158.537857-.6004529.089301-.1001611.179115-.1998085.267389-.2994559.087248-.0991338.172956-.2013495.25969-.3030515.172956-.203404.344886-.4057808.516815-.6081575 1.35388-1.6318552 2.574836-3.315075 3.669026-5.0244908 1.086491-1.7140386 2.047243-3.4542732 2.886362-5.1991306.833986-1.7479393 1.545825-3.502556 2.148348-5.2438179.037465-.1073521.075444-.2157316.113422-.3246246.035412-.1088931.071338-.2177862.106237-.3266792l-.001026.0030818.001026-.0030818c.070825-.2177862.141649-.4350587.211448-.6518175l-.000514.0005136.000514-.0015409c.071851-.2116224.131384-.4288949.19759-.6466811l.000513-.0015409c.064153-.2162452.128306-.4314631.192459-.646681.118041-.4324905.237622-.8624126.348991-1.2897666.052862-.2141906.10521-.4283812.158072-.6420582v.0005136c.052349-.2152179.107264-.4263266.151401-.6374354v-.0005136l.000513-.0010273c.389022-1.7017111.680019-3.3741443.885822-5.0070268.282272-2.2364172.404932-4.3957874.404932-6.4596193 0-.9517871-.026174-1.8825147-.074417-2.7916691-.073904-1.4407786-.212474-2.8250562-.390562-4.150778-.022582-.1664215-.044651-.331302-.065693-.4956689-.026174-.1638533-.050809-.3261656-.07647-.4874506-.051835-.3256519-.095459-.6477083-.15448-.9600054l-.000513-.0010273c-.056455-.3164063-.112909-.6297307-.167824-.938946-.062613-.3092152-.123686-.6138076-.185273-.9163455l-.000513-.0005136c-.057481-.2999696-.129845-.5953164-.195025-.8906632v.0005137c-.067745-.2948332-.129332-.5865844-.203236-.8685764l-.000513-.0010273c-.036952-.1474165-.073904-.2943195-.110343-.4401951.219146.6271625.43162 1.2800073.635369 1.9575071.014884.0693423.029254.1391982.042598.2095678.061587.3025378.12266.6071303.185786.9158319v.0020545c.055428.3102426.11137.623567.168337.9404869v-.0010273c.060047.3189745.103671.6425719.155507.9656556.025661.1623123.050295.3256519.07647.4889915v.0010273l.000513.0015409c.021042.1638533.043111.3282202.065692.4951553.178602 1.329831.317685 2.719245.391589 4.1651601.048756.9117227.074417 1.8455321.074417 2.8004011 0 2.0705093-.12266 4.2375842-.405959 6.4811925-.206315 1.6385325-.498338 3.3166159-.888901 5.0239771-.045163.2157316-.100078.4278676-.151913.6410309v-.0015409l-.000514.0020546c-.052861.2131633-.10521.4278676-.158585.6425718v.0010273c-.111883.4299222-.231977.860358-.350018 1.2928484v.0010273l-.000513.0010273c-.06364.2152179-.127792.4314632-.192458.6477084l-.000514.0005136c-.065179.2147043-.125226.434545-.19913.6528448-.069798.2167589-.140109.4340314-.210934.6518175v-.0005136c-.035412.1094067-.071338.2188134-.10675.3277065v.0005136l-.000514.0010273c-.037978.1088931-.075956.2177862-.113935.3261656-.604576 1.7463983-1.318468 3.5066651-2.155533 5.2607682-.842198 1.7515348-1.806029 3.4974195-2.896113 5.2176219-1.098296 1.7155795-2.323357 3.4044494-3.681856 5.0424684l-.001027.0005136c-.171929.2023768-.344372.4047535-.517328.6086712-.086221.1011884-.172443.2039177-.261743.3056197-.089301.1006747-.179115.2003222-.268415.3004833-.178602.1998085-.35823.4001306-.538371.6009664l-.001026.0010273-.000513.0005137c-.18476.1967266-.370033.3934533-.556333.5912072-.09238.0986201-.185787.1972403-.27868.2963741l-.001026.0010273-.000513.0005136c-.09546.0965656-.190919.1936448-.287405.2902103-.191432.1941584-.383377.3883168-.576348.5829889l-.000514.0005136-.000513.0010273c-.19759.1900492-.395694.3806121-.593798.5716887-.009238.0087319-.018476.0174639-.027201.0261959"/><path d="M95.6654982 105.412505c-2.5070905 0-4.9474622-.18029-7.2800572-.509538h-.0015396c-.5850734-.091942-1.1680938-.171557-1.7434159-.279423h.0005132c-.2853516-.052392-.5717296-.09862-.8570811-.156662-.281759-.057529-.5624916-.11403-.8421977-.171045-.2838119-.053933-.5599254-.123275-.8339861-.184399h-.0005132a261.87165035 261.87165035 0 0 1-.4126307-.093997h.0005133l-.2063154-.047256-.0010264-.000513-.2037492-.051365c-.5414495-.137144-1.0788958-.269664-1.6063856-.422731-1.057905-.289183-2.0761378-.621512-3.06368-.956924h-.0012318c-.9831285-.350307-1.9355662-.704723-2.8465357-1.08893h.0003593c-3.6506523-1.5157715-6.6847194-3.2698745-9.0756165-4.8888885-.2980794-.2023768-.5913859-.3975624-.8698603-.5999392h.0004106c-.2768321-.1987812-.5488912-.3903714-.8101213-.5809343l-.0006159-.0005136-.0006158-.0005137c-.5139921-.3883168-1.0027849-.7473557-1.4434375-1.1048537-.2206856-.1756672-.4354178-.343116-.6387051-.5095374l-.0006159-.0005137c-.2006698-.1679624-.3935388-.3287338-.5779395-.4828278l.0005645.0005137c-.3738823-.306647-.6992652-.5999392-.9933416-.8577898-.1471408-.1294389-.2870965-.2511732-.4165824-.3677709l-.0008212-.0010273c-.1272791-.1176251-.2461927-.2275455-.3560222-.3297611l.0002052.0005136c-.2207368-.2039177-.4063693-.3765029-.5559223-.5146739l-.0008211-.0005136-.0006159-.0010273c-.2926906-.2840466-.4450663-.4309495-.4450663-.4314631l.1187083-.1248161c2.8828719 2.7105129 5.8779854 4.9125158 8.8306042 6.6681598 2.9524647 1.7602668 5.8595607 3.0777699 8.6081223 4.0665399 1.3754869.494128 2.7112503.911209 4.0015423 1.254325 1.2910618.340548 2.5351125.614835 3.7247616.838271h-.0005132c2.3849436.428895 4.5522811.656954 6.4850759.734001.6784798.029278 1.3277059.042119 1.9476784.042119 1.1470516 0 2.1935117-.044174 3.1388671-.114029 1.4575511-.108894 2.6759406-.27326 3.6592744-.456632.2483995-.046228.4808892-.086807.6954161-.134062.2181194-.048283.4218687-.095025.6107344-.139712h-.0005132c.189379-.046228.3638746-.088347.5234867-.133034h-.0005132c.1601253-.046229.3063936-.091429.438805-.133548.2648226-.086293.4737041-.165908.6271575-.236792.1503741-.072424.2458334-.141252.2791929-.184399l.0164231-.02825-.0035926-.005137-.0425974-.031332c-.0477297-.026196-.1318981-.053933-.2473731-.077047l-.0005132-.000514h-.0010265c-.152427-.033387-.3592555-.063178-.6158666-.085265h-.0010265c-.2550714-.025169-.563518-.036469-.9238-.059583h.0005132c-.1791145-.010273-.36952-.019005-.5732692-.02671h.0005132c-.0544015-.001541-.1098295-.003595-.1652575-.00565.3479647-.036982.6943897-.07756 1.0403014-.122248.2365955.013355.4490695.024142.6379353.042633.2617433.0226.4737041.053419.6363955.088861.124713.025169.2206856.054446.2945896.093997.0708246.03801.1349774.098107.1360038.187481-.0005132.053419-.0236082.09862-.0549147.13663-.0662057.081156-.1770617.152553-.3387267.231655l-.0005132.000513-.0010265.000514c-.1626914.074992-.3772183.156662-.64666.243982-.133951.043146-.281759.088861-.4439372.135603h-.0005132c-.1642311.046228-.3402663.088861-.5296453.134575l-.0005133.000514c-.1898922.044687-.3941546.091943-.6127873.140225-.2206855.048797-.4542016.088861-.7010615.135603-.9910321.184399-2.2150671.34928-3.6782637.458687-.9494611.069855-2.0005402.114543-3.1516976.114543-.6225386 0-1.2743308-.013355-1.9548635-.042119-1.9410064-.077561-4.1160422-.306647-6.5081709-.73657h.0005132-.0010265c-1.1937548-.224463-2.4419113-.499778-3.7375921-.841353-1.2952702-.344656-2.6356527-.763278-4.0155533-1.258434-2.7579536-.992365-5.6753139-2.3150048-8.6377866-4.0809217-.2836579-.1684761-.5677264-.341575-.8520002-.5182694 2.2469382 1.4597836 5.0006834 2.9940459 8.2420409 4.3398001h-.0006158.0009751c.9064018.382153 1.8558629.736055 2.8374004 1.085335.9858998.334898 2.0005402.665686 3.0526457.953328h.0013857c.5232814.152039 1.0592907.28456 1.6017666.421704l.203236.051365.2042624.046741c.1365171.031846.2735475.063179.4116042.094511l-.0005132-.000513c.2776532.061637.5522271.130466.8293671.183372l.0010265.000513c.2797061.056501.5609519.113002.8432241.171044.2807325.057015.5660841.103243.8534885.155635l.0005132.000514c.5691635.106839 1.150131.18594 1.736744.278396 2.3248967.327707 4.75757.507483 7.256449.507483 2.5373707 0 5.1429999-.184912 7.773777-.587611 5.2169038-.792557 10.5261877-2.433144 15.4941788-4.9556625 1.2430242-.6261352 2.4593609-1.3154489 3.653629-2.0468816.5984171-.3626345 1.1829772-.7488967 1.7695902-1.1356726.2884309-.1987812.577375-.3975624.8658059-.5968573.2874044-.1987812.5676237-.4093763.8534885-.6153486 1.1296021-.8331347 2.2304638-1.7073612 3.288728-2.6267886 1.0556984-.9235365 2.0759834-1.8861102 3.0562384-2.8825845 1.950244-2.002708 3.743956-4.1461552 5.32468-6.4056865l.000514-.0010272c.400313-.5603885.775992-1.1361863 1.153723-1.7104431.182194-.2902103.364388-.5804207.546582-.870631l.000513-.0005136c.09084-.1417665.176035-.2886694.263796-.436086l.261744-.4407087v.0010273c.086734-.1489575.175522-.2943195.258664-.4407088l-.000514.0005137c.083656-.1489575.166284-.2974014.24994-.4458453v.0005137c.165257-.2989423.335134-.5917209.4891-.8911768v-.0005137c.158073-.3004832.317685-.5983982.471138-.8978542.149861-.3025378.299722-.6040483.448557-.9050452v.0010273c2.350557-4.8354689 3.81786-9.8830737 4.52354-14.7185426.042598-.3025378.084682-.604562.127279-.9060725.034386-.3004833.069285-.5999392.104185-.8988815v-.0005137c.037465-.2963741.061586-.5948027.0893-.8927177v.0005136c.025148-.2994559.058508-.5937754.074417-.886554v-.0005136c.020016-.2953468.039005-.5896663.059021-.8819312.016936-.2922649.026174-.5835025.039518-.8747401v.0005137c.005646-.145362.011804-.2902104.018476-.4340314.002566-.1448483.005132-.2886694.007698-.4319768.005133-.2881557.009752-.5742568.014884-.8598443v-.0493101c0-2.2600449-.132925-4.4291744-.400313-6.4755423V48.03921c-.363362-2.8851528-.960239-5.5232416-1.665407-7.8680382-.049269-.2321682-.10367-.4597137-.153453-.6852045l-.000513-.0010273c-.066719-.2927786-.128819-.5860708-.204263-.8737128-.037978-.1499848-.07493-.2989423-.111882-.4468725.978715 2.8075921 1.836822 6.1247217 2.305907 9.8532822v-.0005137c.268416 2.0545863.401853 4.2314205.401853 6.4981428v.0518783c-.005132.2861011-.010264.5722023-.014883.860358-.002566.1438211-.005132.2881557-.007698.4335177v.0010273l-.000514.0010273c-.006158.143821-.012317.2886694-.017962.4340314v.0010273c-.013344.289183-.022582.5814479-.040032.876281v.0010273c-.020015.2922649-.039005.5860707-.058507.8814175-.016936.2989423-.050296.5948027-.075444.8916905v.0005136c-.027201.2963741-.051835.5968573-.089814.8983679l.000514-.0010273c-.035413.2994559-.069799.5994255-.104698.9009361v.0020546c-.042597.3015105-.085195.6035347-.127792.9065862v.0005136c-.708247 4.8519055-2.179655 9.9159471-4.538937 14.7683663l.000513-.0005137-.000513.0010273c-.149861.3015105-.299722.6030211-.44907.9055589l-.001026.0015409c-.15448.3009969-.314092.5994256-.471652.8993952v-.0005136c-.156019.3040787-.326922.5983982-.491666.8952859v.0005137c-.083656.1479302-.166284.2968877-.249426.4453316l-.000514.0005136c-.085195.1494712-.173982.2958604-.25969.4422497l-.000513.0010273c-.087248.1463893-.174496.2932922-.261744.4401951-.087247.1463893-.173469.2948331-.266875.4407088-.182194.2902103-.364388.5809342-.547095.8711446l-.000513.0005136-.000514.0010273c-.377218.5742569-.754436 1.1515956-1.157829 1.7166068l.000513-.0005136c-1.58637 2.2677496-3.38624 4.4183878-5.342643 6.4272596-.983334 1.0000698-2.006699 1.9657254-3.0665027 2.8918302-1.06237.9235365-2.1668242 1.8008448-3.2995057 2.6365478l-.0010264.0005137c-.2843251.2044313-.5650577.41554-.8560547.6174031-.2894573.1992949-.5789147.3985898-.8678588.5978847l-.0010264.0005136-.0005132.0005136c-.5860998.3867759-1.1727128.7745791-1.7747225 1.1387545h.0005133c-1.1978607.7334873-2.4183031 1.4253692-3.6659464 2.053559-4.9849274 2.5312502-10.3111476 4.1769742-15.545501 4.9720992-2.6400151.403726-5.2543691.589666-7.7999513.589666M59.640737 90.7160491l-.0587127.0626649.0587127-.0626649m35.5731257 7.7529814c-1.6505227 0-3.4057427-.0893745-5.200994-.2902103-2.7472786-.3040788-5.5833446-.8814175-8.2726803-1.6934927-1.3443856-.4057808-2.6539234-.861899-3.8993085-1.3621908-1.2457443-.4987508-2.4293887-1.0349978-3.5328164-1.5804905l-.0011804-.0005136c-.1373383-.0688287-.2732396-.13663-.4089868-.2034041-.0683612-.0339006-.135696-.0672877-.2030821-.1006747l-.0013857-.0005136-.0008211-.0005137c-.0661544-.0349279-.1323087-.0698559-.1978472-.1042702h-.0004106c-.2640528-.1397119-.5240512-.2763419-.7798411-.4109173l-.0012318-.0005136-.0007698-.0005137c-.5022393-.2814783-.9951892-.5444653-1.4559088-.8202936l.0006159.0005137c-.1148592-.0678014-.2289485-.1335481-.3420113-.1992949h.0004106c-.1136788-.0657467-.2259205-.1309799-.3353908-.1998085-.2173496-.1325208-.429259-.2619597-.6359336-.3883168h-.0002053c-.2112936-.1248161-.4079603-.2563096-.6000081-.3775302h-.0002053c-.1932795-.1227616-.3811188-.2409003-.5625429-.3564708l-.0008211-.0005136-.0007698-.0005137c-.3558683-.2378183-.6906432-.4561181-.9976014-.6574676h-.0006159l-.0007698-.0005136c-.3025445-.2069996-.5797871-.3939669-.8291618-.5562792l-.0008212-.0010273h-.0004105c-.4931553-.3338703-.8734529-.5809343-1.1210827-.7124278l-.0007698-.0005137-.0012317-.0005136c-.0823722-.0482828-.1529403-.0806425-.2006699-.0986202.0212474.0416054.0575322.1006748.1090597.1710443.0836039.1150569.2132952.264528.3845061.4525227h-.0002053l.0004106.0005136c.3395991.376503.8576456.893745 1.5922206 1.5450489l-.0004106-.0005136c.1848113.1617986.3829151.3338702.5920018.5162148.2147322.1756671.4416791.3605799.6810459.5562792l.0007699.0005136c.2359795.1967267.4981848.3903714.7714243.6014802l-.0003593-.0005137c.137133.1042703.2756517.2121361.4191999.3179473.1475514.1058112.2971044.2136769.4502499.324111h-.0002053c1.1525431.8259436 2.3095 1.5789495 3.4602469 2.264154 1.1511574.6852046 2.3000567 1.2954167 3.4307878 1.8496414l.0005646.0005136c.5619783.2809647 1.1270873.5331651 1.6828043.7863929.2426002.1042703.4829935.2080269.722155.3107562-.5194322-.1576895-1.0474865-.3292475-1.5835985-.5146739-.2982847-.1371436-.5984171-.2789101-.8981389-.4288949l.0006159.0005137c-1.1341184-.5557656-2.2872261-1.1680323-3.4432079-1.8563187-1.1545447-.6877728-2.3152994-1.4428333-3.4716403-2.2718588l-.0008212-.0005137c-.1533508-.110434-.3029038-.2182998-.4500959-.324111h-.0005645l-.0004106-.0005136c-.146371-.1078658-.2856595-.2167589-.4220226-.3200018h.0002053l-.0006159-.0005137c-.2714432-.2095678-.5350342-.4037262-.7766079-.6050756v-.0005137c-.2397774-.1956993-.4671348-.3811257-.6822263-.5567929l-.0010264-.0010273-.0011804-.0010273c-.2090868-.1823445-.4071905-.3544161-.5924124-.5162148h.0002053l-.0006159-.0005136c-.7385781-.6548994-1.2604225-1.175737-1.6060263-1.5589174l.0008211.0010273-.0004105-.0005136c-.1725967-.1900492-.305162-.341575-.3965668-.4674184-.0900192-.126357-.1421113-.2126497-.1607926-.2927785l-.0044137-.0395508.0406985-.0965656.0926367-.0318461c.0944328.0035956.1932794.052392.3458091.13663.2604603.138171.6409632.3862622 1.1351449.7206462.2507604.1638532.5288242.3508206.8321385.5583338.3057265.2003222.6401421.4186219.9958051.6559267.1810135.1155704.3688528.2337092.5623376.3564707h-.0004106c.1948705.1227615.3901515.2527141.5962102.374962h.0004106l.0006159.0005136c.2072904.1268707.4197644.2563097.6375246.3893441l.0003593.0005137h.0004106c.1064422.066774.2171443.1314935.3304124.1967266h.0004106c.112447.0657468.2268955.1314935.3423705.1998085h.0008212c.4550741.27326.9464331.5352198 1.4502633.8177254.2552255.1340617.5152238.2706917.7792253.4104036l-.0003592-.0005137c.0655385.0344144.1312822.0688287.196872.1037566.0673348.0333871.1347209.0667741.2030821.1006748.1354906.066774.2718025.1345754.409346.203404 1.1000405.5439517 2.2798358 1.0781442 3.5212177 1.5753541 1.2405094.4987508 2.5452229.9528143 3.8850408 1.3570542 2.6788147.8089934 5.5056427 1.3842775 8.2421436 1.687329 1.7885794.1998085 3.5376408.289183 5.1820048.289183.8709381 0 1.7126225-.0251687 2.5147888-.0719105H97.7301912c.2879177-.0113002.5717296-.0364689.8524621-.0559875.2802193-.0205458.55428-.0390371.8201291-.0678013h.0005132c.267902-.0256824.5296454-.0518783.7862565-.0765334.2555846-.0303051.5060371-.0611239.7498176-.0909154h-.0005132c.1231733-.0154094.2437806-.0272233.3587423-.0441736.1190676-.0179776.2360823-.0339007.3505308-.050851h.0005132c.2288972-.0328734.4521488-.0657468.6677022-.0965656.4311066-.0744787.8344993-.13663 1.2019664-.2064859h.0005132c.4234083-.0775606.8483563-.161285 1.2743308-.2522005-.0102645.0025683-.0200157.0051365-.0297669.0077047l-.0010264.0005137h-.0005133c-.1103427.0287642-.2206855.0565011-.3300019.0847517-.1077766.0251686-.2150401.0503373-.3207638.075506h.0010264c-.2140137.0503374-.4213554.0991338-.6225386.1469029l-.0015396.0005137h-.0015397c-.1919451.0477691-.3864563.0852653-.5814808.1294389h.0005133c-.1878394.042119-.3705465.0826971-.5470949.1217342-.1744956.0364689-.3428325.0713969-.5039842.1047839h-.0025662l-.0010264.0005137c-.1334378.0292778-.2622566.0570148-.3864563.0832107-.0467033.0066774-.0939197.0133548-.1411361.0205459h-.0005133c-.1206072.017464-.2422409.0297915-.3623349.0446872h-.0005132c-.2437805.0297915-.494233.0606103-.7503309.0914291h-.0015396c-.2571244.0246551-.5193809.050851-.7883094.077047-.2694416.0287642-.5455552.0472555-.8247481.0678014-.2791928.0195185-.5645444.0446872-.8581075.0559874-.8052457.0472555-1.6494962.0724242-2.5230004.0724242"/><path d="m141.140579 64.8811675-.111369-.0570148-.046703-.1022157v-.0010272l-.000513-.0010273c-.019503-.0832108-.027201-.1967267-.027714-.3477388v-.0102729c.051322-.3225701.103157-.6600358.155506-1.0113701V63.3474188c.029254-.2131633.059021-.4314631.089301-.6538721l.000513-.0015409c.028227-.2172725.065692-.4453316.091354-.6882864.053888-.4633092.117527-.9502462.164231-1.4618382.057994-.5121056.094433-1.0406479.140109-1.5804905l.000514-.0025682v-.0030819c.017962-.2722327.034899-.5485745.052348-.8290255v-.0020546c.007185-.1345754.020016-.2773692.025661-.4294086v.0005137c.005133-.1412528.011291-.2845602.016937-.4304359v.001541c.031306-.7031822.048243-1.4310194.048243-2.1819707 0-1.7335571-.090841-3.5873076-.304854-5.5278644-.075444-.6841772-.166798-1.379141-.275601-2.0828368.007185.0462282.01437.0924564.021042.1381709.419303 2.7377362.561465 5.2787458.561465 7.5074583 0 .3235974-.003079.6405173-.008724.9502462v-.0005137c-.005133.613294-.035413 1.1983375-.055942 1.7535894v.0020546c-.034899.5547383-.05748 1.0832806-.101618 1.5815178v-.0005136c-.020015.247064-.033359.4895051-.055941.7242416v-.0005136c-.021555.2326819-.042597.4581727-.062613.6749316-.009751.1088931-.018989.2157315-.028227.3205154l-.000513.001541c-.011291.1042702-.022582.2064859-.03336.306647v-.0005137c-.020529.2008358-.039518.3934533-.058507.5773388-.016423.1869673-.038492.3631481-.056968.5285423v-.0010273c-.017449.1674488-.034386.3261656-.050296.4756367-.026174.3009969-.056454.563984-.07493.7884475-.017963.2296001-.027201.4206766-.027201.5701477 0 .1422801.008725.248605.022582.306647l.005645.0159231.004619-.0035956c.021556-.0200322.051836-.0565011.086222-.1083794.12266-.1823445.28997-.5583338.510143-1.1289951.102131-.2876421.215553-.6251079.341292-1.0139384.060047-.1936447.118042-.4026989.182708-.6256215l-.000514.0005136c.031307-.1114613.06364-.2260044.096999-.3436295.032847-.1176251.065693-.2378184.09546-.3621208v-.0005137c.061073-.2506595.126252-.5157012.194511-.7925567v.0005137c.066719-.2758282.123686-.5696341.190405-.877822l-.000513.0010273c.03182-.1546076.067745-.3117835.096486-.4710139.029254-.1607714.05902-.3261656.089814-.4951553v.0005136c.029767-.168476.061073-.3410613.092893-.5162148.026688-.1766944.053888-.3564707.082116-.5403562.223251-1.4685155.402879-3.185636.468058-5.1642026v.0025682-.0020546c.011804-.4319767.018476-.8767947.018476-1.3339401 0-1.6349371-.084168-3.4285909-.313579-5.377366v.0005137c-.150374-1.2507294-.331028-2.4316029-.541449-3.5400522v-.0005137c-.049783-.2763418-.10983-.5470336-.163205-.8172117v.0005137c-.054401-.2691508-.107263-.5336788-.168337-.7905021h-.000513v-.0010273c-.058507-.2593915-.117014-.5146738-.174495-.765847-.059534-.2501459-.123687-.495669-.184247-.7391374v.0005136c-.488588-1.9379885-1.022339-3.5991215-1.52581-5.009595h.000513c-1.017206-2.820947-1.871721-4.6515834-2.291537-5.7225365h-.000513c-.220172-.5383016-.330002-.8747401-.332568-1.0663303l.028227-.1243024.121121-.068315c.104697.0066774.181167.0719105.299208.1746398.105211.0970792.23249.2342228.38389.4114309l-.000513-.0005136c.075957.0883472.157046.1869673.244294.2953467.088787.1104341.176035.2321683.271495.3616072h.000513c.094946.1304663.195537.2706918.301774.4196493v.0005136c.105724.1494712.218633.3092153.330516.4833415.110856.1720716.228383.3528751.351044.5429244l.000513.0005136c.06056.0950246.12266.1926175.186813.2927786l.000513.0010273.000513.0010273c.061074.1011883.12266.2054586.1863.3107561l.000513.0005137c.126253.2126497.257124.434545.393128.6651723v.0005136c.136517.2326819.267389.478205.406472.7298918.13857.2522005.282786.5141602.420842.7910157v-.0005136c.138057.2737736.284326.5557656.429054.8500851.462927.9492188.932525 2.0042489 1.389806 3.1635492.018476.0616376.036952.1237888.055428.1854264.036952.1345754.073904.2691508.111369.4047535v.0010273-.0010273c.073391.2717191.148835.5454927.224278.8233755.033873.1345754.067746.2701781.101618.4062944-.107776-.3087016-.217093-.611753-.327435-.9086408-.55582-1.4926569-1.138327-2.8276243-1.709544-3.9992522-.143189-.2917512-.289457-.5732296-.428027-.8480305-.136517-.2732599-.279706-.5331651-.417763-.7853656-.139596-.2527141-.269955-.4966962-.404419-.7257826-.135491-.2301137-.266876-.452009-.392615-.6646587l.000513.0005137c-.064153-.1058112-.125739-.2095678-.186299-.3102425-.06364-.0996475-.125227-.1972403-.185787-.2917513v.0005137c-.12266-.1900493-.240188-.3703392-.351557-.5434381-.108803-.170017-.220172-.3271929-.326409-.4771777h.000513c-.105724-.1484438-.205802-.2881557-.300748-.4175946h.000513c-.096486-.1299526-.182707-.2501459-.267389-.3554435-.086221-.1073521-.166284-.204945-.240701-.2912376-.148321-.1741262-.272521-.3071606-.369007-.3955078-.069285-.0647195-.126766-.1052976-.159612-.1212206l-.001027.0118138c-.002052.127898.101105.4730685.319738 1.0005836l.000513.0010273v.0005136c.416223 1.0611938 1.274331 2.9005622 2.294103 5.7287002.504498 1.4145827 1.040302 3.0813658 1.530429 5.0255181v.0005136c.060047.2419276.1242.4879643.18476.7396511v.0010273c.057481.2516868.115988.5074828.175009.7679016.0621.2604188.115475.5264878.169876.7951249v.0005137c.052349.2670962.112909.5388152.163718.8192662l-.000513-.0005136c.211448 1.1120448.392615 2.2970275.543502 3.5513524.229924 1.9559662.314606 3.7562974.314606 5.3973982 0 .4586864-.006672.9050453-.018476 1.3390766-.065693 1.9857577-.245834 3.7095556-.470112 5.1847485-.028227.1838855-.055428.3641754-.082629.5408699v.0025682c-.031819.1756671-.063126.3482524-.092893.5167284l-.000513.0005137c-.03028.1689897-.06056.3343839-.089301.4951553-.029767.1643669-.066205.32257-.097512.4746094v.0010273c-.065692.3061334-.123173.6009665-.191432.8814175v.0005137c-.068258.2768555-.132924.5418971-.194511.7925566v-.0005136c-.03028.1273843-.06364.2501459-.096999.3682846-.03336.1181387-.065179.2321682-.096486.3441432v-.0010273l-.000513.0015409c-.064153.2218953-.122147.4314631-.18322.6287034l-.000514.0010273c-.126252.3903714-.240188.7298918-.343345 1.0201021v.0005137l-.000514.0015409c-.222738.5763115-.389022.9553826-.528618 1.1649504-.039005.0585557-.074931.1037566-.112396.1386846-.036952.0328734-.07647.0621512-.134978.0636922"/><path d="M144.881969 40.1711718c-.203749-.6774998-.416223-1.3303446-.635369-1.9575071-.033872-.1361163-.067745-.271719-.101618-.4062944-.075443-.2778828-.150887-.5516564-.224278-.8233755v.0010273-.0010273c-.037465-.1356027-.074417-.2701781-.111369-.4047535-.018476-.0616376-.036952-.1237888-.055428-.1854264.10983.2778828.218633.5614157.326409.851626.111883.2999696.222226.606103.331542.9189138.036952.1479302.073904.2968877.111882.4468725.075444.287642.137544.5809342.204263.8737128l.000513.0010273c.049783.2254908.104184.4530363.153453.6852045"/></g><g transform="translate(67.93436 20.782609)"><mask id="b" fill="#fff"><use xlink:href="#a"/></mask><path fill="#FFBF00" d="M.0845202 28.7766212c.41199132-3.7496559 6.99155412-.9282536 6.99155412-.9282536 2.47912187 1.114515 5.65719418 4.0845193 5.65719418 4.0845193 1.5167839 1.0320714 2.7076643 1.1470853 3.5767405.9455565.1936974.4193427 1.6756363 3.577644 2.7025401 4.5852877 1.1006932 1.0819447 3.6464306 2.9750935 3.6464306 2.9750935s.7153481.2717584 1.537281 1.3170615c0 0 1.3251362 1.7598141 1.8344887 2.4102023 0 0 1.537281 2.2310656 2.3243689 1.4178259 0 0 .7430192-.6137466-1.0678979-2.6809429 0 0-1.5116597-2.0733032-2.0025647-2.8610974-.3218042-.5160357-.1578276-.6768516.1619269-.7094219.2972077-.0305346 1.0043569.5119645 1.2626201.6615843.3945688.2300277.435563.3226495 1.1252897.7928832 0 0 1.2288.8447922 3.0673881 2.0275013 0 0 2.5969801 1.7883131 3.1411776.6198535 0 0 .7768393-.8590417-2.0384347-2.2351369 0 0-1.3302605-.8040793-1.6110705-1.0432674 0 0-1.5680266-1.1043368-2.2587782-1.5460715-.1527033-.0977109-.2869591-.2218852-.3873948-.3725228-.1455293-.2147604-.2654372-.4946615.0635409-.520107.1373304-.0101782.273636.028499.3935439.0956752.1732004.0966931.49193.2768476.8516537.4855011.9449154.5465703 2.3704874 1.3404714 3.026394 1.6926378 0 0 1.9677197.9414853 2.744559 1.4931447 0 0 1.3425588.880416 1.7770969.063105 0 0 .5954402-.7979724-.9356917-1.69162l-2.3879099-1.3933982s-1.1181157-.668709-2.3223192-1.2641348c0 0-1.0299783-.4142535-1.5823746-1.0005189-.1537281-.1628515-.0891623-.4366456.1240073-.5078932.3586989-.1180673 1.1273394-.0753188 2.7671059.7562417 0 0 .2767106.1323169 2.2577534.8671843 0 0 2.6215766.8946654 2.990524.3338456 0 0 .9049461-.908915-2.4371029-2.0560003 0 0-2.4719478-1.1267288-3.2610854-1.3679526 0 0-2.3735619-.7949189-3.1329788-1.3353824 0 0-1.1191406-.6778693-1.6377167-1.7903487 0 0-.5554709-1.1949229 1.0863453-1.9593072 0 0 1.776072-.5150178 2.7189377-1.1766021 0 0 2.4524756-1.7832239 1.1601347-2.7379409 0 0-.3914942-.611711-1.4645164.3318099 0 0-.9244183.6900833-1.480914.7307962l-1.6551393.4040753s-1.6489901-.0732832-3.2139422.6442812c0 0-3.1268296.508911-3.6033867.7246892 0 0-.0317705.1455486-.5001287-.2737941l-.4406873-.4071287c.0881375-.6300318.0963363-1.0391962.0963363-1.0391962.1988217-2.1781389-1.0094812-7.92069-1.0094812-7.92069-.4488861-1.8809349-1.0965938-8.2178941-1.0965938-8.2178941-1.6448907-8.11814751 1.2954155-7.37615534 1.2954155-7.37615534 1.5895486.074301 2.8911132 6.4356879 2.8911132 6.4356879.8619022 4.87842034.9223686 5.59394914.9223686 5.59394914.2562135 4.3043689 1.0863452 5.9084562 1.7586495 6.4906503.399693.3460595 1.0381771.1496198 1.1878058-.3562376.5390732-1.8157943.1568026-4.3888481.1568026-4.3888481-.2203436-3.1440519-.1875482-6.200571-.1875482-6.200571V3.9132677c0-4.15780248 2.3428162-3.91047176 2.3428162-3.91047176 2.1931876-.09872872 1.994366 3.66314104 1.994366 3.66314104-.1998466 2.22801214.224443 7.32628202.224443 7.32628202.0625161 1.7455646.140405 5.5715571.1486038 8.1313792.0040994.9771091.0163977 1.8341151.0256214 2.3002775.0051242.3216318.0891623.6432635.2746608.9068794.4447867.634103.8731757.0580158 1.1406626-.4905902.1865234-.3837189.28081-.8020437.2992573-1.2274932.0799387-1.9226656.4663086-6.4082067.4663086-6.4082067.1537281-.851917.2111199-4.49877285.2111199-4.49877285-.5482969-7.32628206 2.1388704-6.78683645 2.1388704-6.78683645 3.0407419-.29618618 2.4842461 7.0840405 2.4842461 7.0840405-.2234182 5.1237154-.4857808 8.6138267-.4857808 8.6138267-.1373304 1.9552359-.2797851 2.1486221-.2777354 3.2193707.0020497.6992437-.2633875 2.7756003.1537281 3.3394737.4478612.6066218.9725864.7460634 1.6448907-.520107 1.0258789-1.9328438 3.4640066-7.4626702 3.4640066-7.4626702 2.0681554-6.1252522 4.21215-5.3588323 4.21215-5.3588323 2.604154.6188357-.1250322 6.3868324-.1250322 6.3868324-.7225221 1.8066339-2.7414845 6.5832721-2.7414845 6.5832721-1.1591099 2.9079172-.8598525 4.6779095-.8598525 4.6779095s-.8352561 7.4016008-1.7320033 10.9161399c-.8967473 3.514539-6.2311125 11.0392963-6.2311125 11.0392963-.7973364 1.8809349-.2982325 8.1181476-.2982325 8.1181476H17.3891803l2.1788396-9.7761794c.2982326-1.4483606-.0379196-1.337418-.0379196-1.337418-1.0094812-.7053506-5.7873506-6.4102424-5.7873506-6.4102424-3.3399992-2.3023131-5.15911512-5.7181234-5.15911512-5.7181234l-2.80400059-2.8590618c-.74711858-1.0758377-3.26518491-2.1160517-3.26518491-2.1160517C-.70051797 30.2992827.08452021 28.7766212.08452021 28.7766212" mask="url(#b)"/></g><g fill="#1E90FF" fill-rule="nonzero"><path d="M27.63044885 173.13305072H22.541504v13.59641758h1.43733557v-4.29258328h3.65160928c3.45737475 0 5.55510775-1.74811083 5.55510775-4.64220542 0-2.91351805-2.097733-4.66162888-5.55510775-4.66162888Zm-.0388469 8.04130981h-3.61276238v-6.79820878h3.61276238c2.71928351 0 4.15661908 1.24310104 4.15661908 3.41852785 0 2.1365799-1.43733557 3.37968093-4.15661908 3.37968093ZM43.3144009 186.846009c4.0789252 0 7.1284074-2.9329415 7.1284074-6.9147495s-3.0494822-6.9147495-7.1284074-6.9147495c-4.1177722 0-7.147831 2.95236495-7.147831 6.9147495 0 3.9623845 3.0300588 6.9147495 7.147831 6.9147495Zm0-1.2819479c-3.2825637 0-5.7299189-2.3890848-5.7299189-5.6328016 0-3.24371676 2.4473552-5.63280156 5.7299189-5.63280156 3.2631402 0 5.6910719 2.3890848 5.6910719 5.63280156 0 3.2437168-2.4279317 5.6328016-5.6910719 5.6328016ZM65.4080926 186.7294683l-3.3214106-4.6616289c1.9811923-.64097397 3.1077526-2.1365799 3.1077526-4.2731598 0-2.91351805-2.097733-4.66162888-5.5551078-4.66162888H54.550382v13.59641758h1.4373355v-4.31200674h3.6516093c.3884691 0 .7380913-.01942345 1.0877134-.05827036l3.1077526 4.3702771h1.5732998Zm-5.8076127-5.53568432h-3.6127624v-6.81763223h3.6127624c2.7192835 0 4.1566191 1.24310104 4.1566191 3.41852785 0 2.1365799-1.4373356 3.39910438-4.1566191 3.39910438ZM80.9264584 186.846009c3.4767982 0 5.5745312-2.0200392 5.5745312-5.92415337v-7.7888049h-1.3984887v7.73053454c0 3.22429333-1.5150293 4.70047583-4.1760425 4.70047583-2.6415897 0-4.1566191-1.4761825-4.1566191-4.70047583v-7.73053455h-1.4373355v7.78880491c0 3.90411417 2.1171564 5.92415337 5.5939546 5.92415337ZM97.62043 186.846009c2.0006157 0 3.7875735-.6798209 4.9918276-2.0006157l-.9129023-.9129024c-1.1071369 1.1459838-2.4667786 1.6315702-4.0206549 1.6315702-3.2825637 0-5.7493423-2.4085083-5.7493423-5.6328016 0-3.22429331 2.4667786-5.63280156 5.7493423-5.63280156 1.5538763 0 2.913518.48558634 4.0206549 1.61214665l.9129023-.91290232c-1.2042541-1.32079485-2.9912119-1.98119227-4.9724041-1.98119227-4.0983488 0-7.1284075 2.9329415-7.1284075 6.9147495s3.0300587 6.9147495 7.108984 6.9147495ZM117.4221542 186.7294683l-3.3214106-4.6616289c1.9811923-.64097397 3.1077526-2.1365799 3.1077526-4.2731598 0-2.91351805-2.097733-4.66162888-5.5551078-4.66162888h-5.0889448v13.59641758h1.4373356v-4.31200674h3.6516092c.3884691 0 .7380913-.01942345 1.0877134-.05827036l3.1077526 4.3702771h1.5732998Zm-5.8076127-5.53568432h-3.6127623v-6.81763223h3.6127623c2.7192835 0 4.1566191 1.24310104 4.1566191 3.41852785 0 2.1365799-1.4373356 3.39910438-4.1566191 3.39910438ZM131.649347 186.7294683h1.51503l-6.215506-13.59641758h-1.417912l-6.2155049 13.59641758h1.4956059l1.6315701-3.6321859h7.5751469l1.63157 3.6321859Zm-8.682284-4.79759308 3.263141-7.30321857 3.26314 7.30321857h-6.526281ZM146.245586 173.13305072v11.03252168l-8.759978-11.03252168h-1.184831v13.59641758h1.437336v-11.0325217l8.740554 11.0325217h1.184831v-13.59641758zM152.975326 186.7294683h1.437335v-13.59641758h-1.437335zM169.882955 186.7294683h1.51503l-6.215506-13.59641758h-1.417912l-6.215505 13.59641758h1.495606l1.63157-3.6321859h7.575147l1.63157 3.6321859Zm-8.682284-4.79759308 3.263141-7.30321857 3.26314 7.30321857h-6.526281Z"/></g></g></svg>